<svg width="18" height="18" viewBox="0 0 18 18" fill="none" xmlns="http://www.w3.org/2000/svg">
<g clip-path="url(#clip0_120_6522)">
<path fill-rule="evenodd" clip-rule="evenodd" d="M0.293343 5.28396C-0.193558 6.29958 -0.0226387 7.48743 0.319199 9.86319L0.570343 11.6085C1.00945 14.6603 1.22901 16.1862 2.28763 17.0977C3.34624 18.0092 4.89875 18.0092 8.00373 18.0092H9.9967C13.1017 18.0092 14.6542 18.0092 15.7128 17.0977C16.7714 16.1862 16.9909 14.6603 17.4301 11.6085L17.6812 9.86319C18.0231 7.48743 18.194 6.29958 17.7071 5.28396C17.2202 4.26833 16.1838 3.65098 14.1111 2.41627L12.8635 1.67308C10.9813 0.551832 10.0401 -0.00878906 9.00022 -0.00878906C7.96031 -0.00878906 7.01917 0.551832 5.13693 1.67308L3.88933 2.41627C1.8166 3.65098 0.780244 4.26833 0.293343 5.28396ZM5.62193 14.4054C5.62193 14.0323 5.92444 13.7298 6.2976 13.7298H11.703C12.0762 13.7298 12.3787 14.0323 12.3787 14.4054C12.3787 14.7786 12.0762 15.0811 11.703 15.0811H6.2976C5.92444 15.0811 5.62193 14.7786 5.62193 14.4054Z" fill="#1C34FF"/>
</g>
<defs>
<clipPath id="clip0_120_6522">
<rect width="18" height="18" fill="white"/>
</clipPath>
</defs>
</svg>
