<svg width="19" height="18" viewBox="0 0 19 18" fill="none" xmlns="http://www.w3.org/2000/svg">
<g clip-path="url(#clip0_120_7260)">
<path d="M8.99648 16.98C4.3153 16.98 0.507812 13.1725 0.507812 8.4913C0.507812 3.81012 4.3153 0.000732422 8.99648 0.000732422C13.6777 0.000732422 17.4852 3.80822 17.4852 8.4894C17.4852 13.1706 13.6777 16.98 8.99648 16.98ZM8.99648 1.61735C5.20605 1.61735 2.12443 4.70087 2.12443 8.4894C2.12443 12.2779 5.20795 15.3615 8.99648 15.3615C12.785 15.3615 15.8685 12.2779 15.8685 8.4894C15.8685 4.70087 12.7869 1.61735 8.99648 1.61735Z" fill="#1C34FF"/>
<path d="M17.6877 17.9902C17.4812 17.9902 17.2746 17.9106 17.1154 17.7533L15.296 15.9339C14.9795 15.6174 14.9795 15.1057 15.296 14.7911C15.6106 14.4746 16.1242 14.4746 16.4388 14.7911L18.2582 16.6105C18.5747 16.927 18.5747 17.4387 18.2582 17.7533C18.1028 17.9125 17.8943 17.9902 17.6877 17.9902Z" fill="#1C34FF"/>
</g>
<defs>
<clipPath id="clip0_120_7260">
<rect width="18" height="18" fill="white" transform="translate(0.511719)"/>
</clipPath>
</defs>
</svg>
