<svg width="14" height="13" viewBox="0 0 14 13" fill="none" xmlns="http://www.w3.org/2000/svg">
<path d="M12.9032 0.215487C12.6108 0.0224286 12.2552 -0.044488 11.9145 0.0294287C11.5737 0.103345 11.2757 0.312054 11.0857 0.609732L5.36423 9.59756L2.72106 7.10674C2.59487 6.98459 2.44612 6.8892 2.28346 6.82612C2.1208 6.76304 1.94746 6.73352 1.77351 6.73927C1.59957 6.74503 1.42847 6.78595 1.27017 6.85965C1.11187 6.93336 0.96951 7.03838 0.851362 7.16862C0.733213 7.29886 0.641629 7.45172 0.581927 7.61834C0.522225 7.78495 0.495594 7.96199 0.503582 8.13918C0.51157 8.31637 0.554017 8.49017 0.628458 8.6505C0.702899 8.81083 0.807851 8.95449 0.93722 9.07314L4.72617 12.6438C4.97845 12.8822 5.29905 13.0001 5.61756 13.0001C5.97128 13.0001 6.42381 12.849 6.72076 12.3899C6.89526 12.1189 13.2906 2.0678 13.2906 2.0678C13.3845 1.92025 13.449 1.7553 13.4803 1.58236C13.5117 1.40942 13.5093 1.23188 13.4733 1.05988C13.4374 0.887871 13.3685 0.724771 13.2707 0.57989C13.1729 0.43501 13.048 0.311185 12.9032 0.215487Z" fill="white"/>
</svg>
