<svg width="11" height="10" viewBox="0 0 11 10" fill="none" xmlns="http://www.w3.org/2000/svg">
<g clip-path="url(#clip0_30_8670)">
<path d="M7.00188 3.49861V2.09731C7.00188 1.53669 7.00188 1.25618 6.89278 1.04205C6.79681 0.853699 6.64379 0.700676 6.45543 0.60471C6.24132 0.495605 5.96079 0.495605 5.40018 0.495605H2.59738C2.03677 0.495605 1.75659 0.495605 1.54247 0.60471C1.35413 0.700676 1.20083 0.853699 1.10488 1.04205C0.995775 1.25618 0.995775 1.53648 0.995775 2.0971V4.89991C0.995775 5.46052 0.995775 5.74085 1.10488 5.95496C1.20083 6.1433 1.35428 6.29666 1.54262 6.3926C1.75654 6.50161 2.03641 6.50161 2.59592 6.50161H3.99888M7.00188 3.49861H8.40318C8.9638 3.49861 9.24431 3.49861 9.45844 3.60771C9.64679 3.70368 9.79981 3.8567 9.89578 4.04505C10.0049 4.25917 10.0049 4.5397 10.0049 5.10031V7.90311C10.0049 8.46372 10.0049 8.7439 9.89578 8.95802C9.79981 9.14636 9.64679 9.29966 9.45844 9.39561C9.24452 9.50461 8.96435 9.50461 8.40483 9.50461H5.59868C5.03917 9.50461 4.75939 9.50461 4.54547 9.39561C4.35714 9.29966 4.20383 9.14621 4.10789 8.95787C3.99888 8.74395 3.99888 8.46407 3.99888 7.90456V6.50161M7.00188 3.49861H5.60038C5.03977 3.49861 4.75959 3.49861 4.54547 3.60771C4.35714 3.70368 4.20383 3.8567 4.10789 4.04505C3.99888 4.25897 3.99888 4.53915 3.99888 5.09866V6.50161" stroke="#383838" stroke-width="0.5" stroke-linecap="round" stroke-linejoin="round"/>
</g>
<defs>
<clipPath id="clip0_30_8670">
<rect width="10" height="10" fill="white" transform="matrix(-1 0 0 1 10.5 0)"/>
</clipPath>
</defs>
</svg>
