<svg width="24" height="24" viewBox="0 0 24 24" fill="none" xmlns="http://www.w3.org/2000/svg">
<path d="M16.6154 12.9034L16.2322 12.9365C16.25 13.1412 16.4262 13.2957 16.632 13.2868C16.8377 13.2779 17 13.1089 17 12.9034H16.6154ZM7.77645 11.9706L8.13824 9.88334L7.38025 9.75252L7.01846 11.8399L7.77645 11.9706ZM11.3616 7.26744H13.7455V6.5H11.3616V7.26744ZM14.2129 7.69593L14.6293 12.5015L15.3957 12.4354L14.9792 7.62983L14.2129 7.69593ZM8.13824 9.88334C8.39813 8.38397 9.75325 7.26744 11.3616 7.26744V6.5C9.39946 6.5 7.70737 7.86554 7.38025 9.75252L8.13824 9.88334ZM11.3566 15.5302L11.6964 13.4608L10.9373 13.3368L10.5974 15.4061L11.3566 15.5302ZM14.4679 12.8976L13.73 13.5319L14.2322 14.1133L14.97 13.4789L14.4679 12.8976ZM12.3877 15.5957L12.1438 16.5339L12.8883 16.7266L13.1323 15.7884L12.3877 15.5957ZM11.7753 16.718L11.701 16.6942L11.4657 17.4249L11.5401 17.4487L11.7753 16.718ZM12.7572 14.6523C12.5973 14.9511 12.473 15.2676 12.3877 15.5957L13.1323 15.7884C13.2022 15.5195 13.3041 15.2596 13.4357 15.0139L12.7572 14.6523ZM11.701 16.6942C11.5438 16.6438 11.4323 16.5227 11.3956 16.3817L10.651 16.5744C10.7564 16.9796 11.0672 17.2972 11.4657 17.4249L11.701 16.6942ZM12.1438 16.5339C12.1258 16.603 12.0758 16.6665 12.0002 16.7029L12.3341 17.3942C12.6069 17.2631 12.8118 17.021 12.8883 16.7266L12.1438 16.5339ZM12.0002 16.7029C11.9311 16.7361 11.8497 16.7419 11.7753 16.718L11.5401 17.4487C11.8014 17.5325 12.0866 17.5132 12.3341 17.3942L12.0002 16.7029ZM10.8956 12.5197H8.23865V13.2872H10.8956V12.5197ZM15.734 7.18758L16.2322 12.9365L16.9986 12.8704L16.5003 7.12148L15.734 7.18758ZM16.2308 7.13304L16.2308 12.9034H17L17 7.13304H16.2308ZM16.5003 7.12148C16.5071 7.1995 16.4454 7.26744 16.3658 7.26744V6.5C15.9935 6.5 15.702 6.81828 15.734 7.18758L16.5003 7.12148ZM10.5974 15.4061C10.5336 15.795 10.5518 16.1929 10.651 16.5744L11.3956 16.3817C11.3233 16.1037 11.31 15.8136 11.3566 15.5302L10.5974 15.4061ZM13.7455 7.26744C13.9885 7.26744 14.1918 7.45316 14.2129 7.69593L14.9792 7.62983C14.9239 6.99106 14.3884 6.5 13.7455 6.5V7.26744ZM13.73 13.5319C13.3814 13.8316 13.0056 14.1884 12.7572 14.6523L13.4357 15.0139C13.6133 14.6821 13.8962 14.4021 14.2322 14.1133L13.73 13.5319ZM7.01846 11.8399C6.88753 12.5953 7.46978 13.2872 8.23865 13.2872V12.5197C7.94809 12.5197 7.72665 12.2579 7.77645 11.9706L7.01846 11.8399ZM16.3658 7.26744C16.2908 7.26744 16.2308 7.20687 16.2308 7.13304H17C17 6.7838 16.7165 6.5 16.3658 6.5V7.26744ZM11.6964 13.4608C11.7773 12.9682 11.3967 12.5197 10.8956 12.5197V13.2872C10.9212 13.2872 10.9416 13.3103 10.9373 13.3368L11.6964 13.4608ZM14.6293 12.5015C14.6424 12.6519 14.5822 12.7993 14.4679 12.8976L14.97 13.4789C15.2717 13.2196 15.43 12.8312 15.3957 12.4354L14.6293 12.5015Z" fill="#FF272C"/>
</svg>
