<svg width="81" height="80" viewBox="0 0 81 80" fill="none" xmlns="http://www.w3.org/2000/svg">
<rect x="0.5" width="80" height="80" rx="40" fill="#F3F4F7"/>
<g clip-path="url(#clip0_1_1028)">
<path fill-rule="evenodd" clip-rule="evenodd" d="M27.7097 40C27.7097 38.5706 27.9524 37.2002 28.3855 35.9148L20.8041 30.2512C19.3265 33.1861 18.494 36.493 18.494 40C18.494 43.504 19.3255 46.8089 20.801 49.7418L28.3784 44.0671C27.9493 42.7878 27.7097 41.4224 27.7097 40Z" fill="#FBBC05"/>
<path fill-rule="evenodd" clip-rule="evenodd" d="M41.0212 26.9962C44.1954 26.9962 47.0625 28.0965 49.3153 29.897L55.8686 23.4952C51.8752 20.0942 46.7554 17.9937 41.0212 17.9937C32.1188 17.9937 24.4677 22.9741 20.804 30.2511L28.3854 35.9147C30.1323 30.7273 35.1118 26.9962 41.0212 26.9962Z" fill="#EB4335"/>
<path fill-rule="evenodd" clip-rule="evenodd" d="M41.0212 53.0035C35.1118 53.0035 30.1323 49.2724 28.3854 44.085L20.804 49.7476C24.4677 57.0256 32.1188 62.0061 41.0212 62.0061C46.5157 62.0061 51.7615 60.0975 55.6987 56.5215L48.5022 51.0789C46.4717 52.3303 43.9149 53.0035 41.0212 53.0035Z" fill="#34A853"/>
<path fill-rule="evenodd" clip-rule="evenodd" d="M62.5244 39.9999C62.5244 38.6995 62.3196 37.2991 62.0124 35.9988H41.0211V44.5012H53.1039C52.4998 47.4 50.8553 49.6287 48.5022 51.0791L55.6987 56.5216C59.8345 52.7665 62.5244 47.173 62.5244 39.9999Z" fill="#4285F4"/>
</g>
<defs>
<clipPath id="clip0_1_1028">
<rect width="44" height="44" fill="white" transform="translate(18.5 18)"/>
</clipPath>
</defs>
</svg>
