<svg width="20" height="20" viewBox="0 0 20 20" fill="none" xmlns="http://www.w3.org/2000/svg">
<g clip-path="url(#clip0_112_6700)">
<path d="M20 17.7778C20 18.3671 19.7659 18.9324 19.3491 19.3491C18.9324 19.7659 18.3671 20 17.7778 20H2.22222C1.63285 20 1.06762 19.7659 0.650874 19.3491C0.234126 18.9324 0 18.3671 0 17.7778V2.22222C0 1.63285 0.234126 1.06762 0.650874 0.650874C1.06762 0.234126 1.63285 0 2.22222 0L17.7778 0C18.3671 0 18.9324 0.234126 19.3491 0.650874C19.7659 1.06762 20 1.63285 20 2.22222V17.7778Z" fill="#BEFFDC"/>
<path d="M13.4044 6.37428C13.2358 6.2629 13.0306 6.2243 12.834 6.26694C12.6374 6.30959 12.4655 6.43 12.3559 6.60173L9.05502 11.787L7.53011 10.35C7.45731 10.2795 7.3715 10.2245 7.27765 10.1881C7.18381 10.1517 7.08381 10.1347 6.98345 10.138C6.8831 10.1413 6.78439 10.1649 6.69306 10.2075C6.60173 10.25 6.5196 10.3106 6.45144 10.3857C6.38328 10.4608 6.33044 10.549 6.296 10.6452C6.26155 10.7413 6.24619 10.8434 6.2508 10.9456C6.25541 11.0479 6.2799 11.1481 6.32284 11.2406C6.36579 11.3331 6.42634 11.416 6.50097 11.4845L8.6869 13.5445C8.83245 13.682 9.01742 13.75 9.20117 13.75C9.40524 13.75 9.66631 13.6629 9.83763 13.398C9.9383 13.2416 13.6279 7.44292 13.6279 7.44292C13.6821 7.3578 13.7193 7.26264 13.7374 7.16287C13.7555 7.06309 13.7541 6.96066 13.7333 6.86143C13.7126 6.7622 13.6729 6.6681 13.6164 6.58452C13.56 6.50093 13.488 6.42949 13.4044 6.37428Z" fill="#03CC60"/>
</g>
<defs>
<clipPath id="clip0_112_6700">
<rect width="20" height="20" rx="10" fill="white"/>
</clipPath>
</defs>
</svg>
