<svg width="18" height="18" viewBox="0 0 18 18" fill="none" xmlns="http://www.w3.org/2000/svg">
<g clip-path="url(#clip0_112_7018)">
<path fill-rule="evenodd" clip-rule="evenodd" d="M0.293343 5.28371C-0.193558 6.29934 -0.0226387 7.48718 0.319199 9.86295L0.570343 11.6083C1.00945 14.6601 1.22901 16.1859 2.28763 17.0975C3.34624 18.009 4.89875 18.009 8.00373 18.009H9.9967C13.1017 18.009 14.6542 18.009 15.7128 17.0975C16.7714 16.1859 16.9909 14.6601 17.4301 11.6083L17.6812 9.86295C18.0231 7.48718 18.194 6.29934 17.7071 5.28371C17.2202 4.26808 16.1838 3.65073 14.1111 2.41602L12.8635 1.67283C10.9813 0.551588 10.0401 -0.0090332 9.00022 -0.0090332C7.96031 -0.0090332 7.01917 0.551588 5.13693 1.67283L3.88933 2.41602C1.8166 3.65073 0.780244 4.26808 0.293343 5.28371ZM5.62193 14.4052C5.62193 14.032 5.92444 13.7295 6.2976 13.7295H11.703C12.0762 13.7295 12.3787 14.032 12.3787 14.4052C12.3787 14.7784 12.0762 15.0809 11.703 15.0809H6.2976C5.92444 15.0809 5.62193 14.7784 5.62193 14.4052Z" fill="#AAAAAB"/>
</g>
<defs>
<clipPath id="clip0_112_7018">
<rect width="18" height="18" fill="white"/>
</clipPath>
</defs>
</svg>
