<svg width="20" height="20" viewBox="0 0 20 20" fill="none" xmlns="http://www.w3.org/2000/svg">
<g clip-path="url(#clip0_30_8577)">
<path d="M17 0H3C1.34315 0 0 1.34315 0 3V17C0 18.6569 1.34315 20 3 20H17C18.6569 20 20 18.6569 20 17V3C20 1.34315 18.6569 0 17 0Z" fill="#37AEE2"/>
<path d="M7.2108 12.1147C6.77375 12.184 6.79891 12.0857 6.64329 11.8746L4.9894 9.66101L14.1991 4.80737" fill="#C8DAEA"/>
<path d="M7.06976 12.1372C7.29871 12.1212 7.42625 12.0651 7.5865 12.0067L9.02303 11.3992L7.16354 11.1282" fill="#A9C9DD"/>
<path d="M7.45938 11.5095L12.6757 15.6184C13.2167 15.992 13.6804 15.7845 13.8349 15.0374L15.9601 4.32919C16.1533 3.41609 15.6124 3.00104 15.0328 3.29157L2.62942 8.43815C1.81799 8.77018 1.81799 9.30974 2.47486 9.51727L5.68196 10.5964L13.0235 5.57433C13.3713 5.3668 13.6804 5.44981 13.4485 5.74035" fill="#F6FBFE"/>
</g>
<defs>
<clipPath id="clip0_30_8577">
<rect width="20" height="20" fill="white"/>
</clipPath>
</defs>
</svg>
