<svg width="14" height="14" viewBox="0 0 14 14" fill="none" xmlns="http://www.w3.org/2000/svg">
<g clip-path="url(#clip0_112_4659)">
<path d="M6.5 13C2.91549 13 0 10.0848 0 6.50073C0 2.91662 2.91549 0 6.5 0C10.0845 0 13 2.91517 13 6.49928C13 10.0834 10.0845 13 6.5 13ZM6.5 1.23775C3.59757 1.23775 1.23789 3.59862 1.23789 6.49928C1.23789 9.39993 3.59902 11.7608 6.5 11.7608C9.40098 11.7608 11.7621 9.39993 11.7621 6.49928C11.7621 3.59862 9.40243 1.23775 6.5 1.23775Z" fill="#AAAAAB"/>
<path d="M13.2949 14C13.1146 14 12.9342 13.9305 12.7953 13.7932L11.2072 12.2049C10.9309 11.9286 10.9309 11.4819 11.2072 11.2072C11.4818 10.9309 11.9301 10.9309 12.2047 11.2072L13.7928 12.7955C14.0691 13.0718 14.0691 13.5185 13.7928 13.7932C13.6572 13.9322 13.4752 14 13.2949 14Z" fill="#AAAAAB"/>
</g>
<defs>
<clipPath id="clip0_112_4659">
<rect width="14" height="14" fill="white"/>
</clipPath>
</defs>
</svg>
