<svg width="16" height="13" viewBox="0 0 16 13" fill="none" xmlns="http://www.w3.org/2000/svg">
<g clip-path="url(#clip0_131_3219)">
<path fill-rule="evenodd" clip-rule="evenodd" d="M3.16978 0.00805699H12.8306C13.1819 0.00804888 13.485 0.00804069 13.7358 0.0253821C14 0.0436487 14.2641 0.0838174 14.5252 0.193368C15.1138 0.440449 15.5815 0.914381 15.8253 1.51089C15.9334 1.77538 15.973 2.04309 15.9911 2.31074C16.0082 2.56495 16.0082 2.87208 16.0082 3.22804V9.77185C16.0082 10.1278 16.0082 10.4349 15.9911 10.6892C15.973 10.9568 15.9334 11.2245 15.8253 11.489C15.5815 12.0855 15.1138 12.5595 14.5252 12.8065C14.2641 12.916 14 12.9562 13.7358 12.9745C13.485 12.9918 13.1819 12.9918 12.8306 12.9918H3.16977C2.8185 12.9918 2.51541 12.9918 2.26456 12.9745C2.00043 12.9562 1.73624 12.916 1.47523 12.8065C0.886578 12.5595 0.418886 12.0855 0.175059 11.489C0.0669505 11.2245 0.0273109 10.9568 0.00928487 10.6892C-0.00782824 10.4349 -0.00782016 10.1278 -0.00781215 9.77185V3.22805C-0.00782016 2.87209 -0.00782824 2.56495 0.00928487 2.31074C0.0273109 2.04309 0.0669505 1.77538 0.175059 1.51089C0.418886 0.914381 0.886578 0.440449 1.47523 0.193368C1.73624 0.0838174 2.00043 0.0436487 2.26456 0.0253821C2.51541 0.00804069 2.81851 0.00804888 3.16978 0.00805699ZM1.848 1.85643C2.13925 1.51916 2.64516 1.48498 2.97801 1.7801L7.47287 5.76555C7.77477 6.03326 8.22562 6.03326 8.52752 5.76555L13.0224 1.7801C13.3552 1.48498 13.8612 1.51916 14.1523 1.85643C14.4436 2.19372 14.4099 2.70638 14.0771 3.00151L9.58218 6.98699C8.67639 7.79012 7.324 7.79012 6.41821 6.98699L1.92334 3.00151C1.5905 2.70638 1.55677 2.19372 1.848 1.85643Z" fill="#323232"/>
</g>
<defs>
<clipPath id="clip0_131_3219">
<rect width="16" height="13" fill="white"/>
</clipPath>
</defs>
</svg>
