<svg width="20" height="20" viewBox="0 0 20 20" fill="none" xmlns="http://www.w3.org/2000/svg">
<g clip-path="url(#clip0_112_3396)">
<path d="M20 17.7778C20 18.3671 19.7659 18.9324 19.3491 19.3491C18.9324 19.7659 18.3671 20 17.7778 20H2.22222C1.63285 20 1.06762 19.7659 0.650874 19.3491C0.234126 18.9324 0 18.3671 0 17.7778V2.22222C0 1.63285 0.234126 1.06762 0.650874 0.650874C1.06762 0.234126 1.63285 0 2.22222 0L17.7778 0C18.3671 0 18.9324 0.234126 19.3491 0.650874C19.7659 1.06762 20 1.63285 20 2.22222V17.7778Z" fill="#FFE3E4"/>
<path d="M6.875 6.25C6.70898 6.25 6.55029 6.31592 6.43311 6.43311C6.18896 6.67725 6.18896 7.07275 6.43311 7.31689L9.11621 10L6.43311 12.6831C6.18896 12.9272 6.18896 13.3228 6.43311 13.5669C6.67725 13.811 7.07275 13.811 7.31689 13.5669L10 10.8838L12.6831 13.5669C12.9272 13.811 13.3228 13.811 13.5669 13.5669C13.811 13.3228 13.811 12.9272 13.5669 12.6831L10.8838 10L13.5669 7.31689C13.811 7.07275 13.811 6.67725 13.5669 6.43311C13.4497 6.31592 13.291 6.25 13.125 6.25C12.959 6.25 12.8003 6.31592 12.6831 6.43311L10 9.11621L7.31689 6.43311C7.19971 6.31592 7.04102 6.25 6.875 6.25Z" fill="#FF272C"/>
</g>
<defs>
<clipPath id="clip0_112_3396">
<rect width="20" height="20" rx="10" fill="white"/>
</clipPath>
</defs>
</svg>
