<svg width="20" height="20" viewBox="0 0 20 20" fill="none" xmlns="http://www.w3.org/2000/svg">
<rect width="20" height="20" rx="4" fill="black"/>
<path fill-rule="evenodd" clip-rule="evenodd" d="M10.3324 11.5556C9.29768 11.5556 8.45939 10.7101 8.45939 9.66667C8.45939 8.62324 9.29768 7.77778 10.3324 7.77778C11.3672 7.77778 12.2058 8.62324 12.2058 9.66667C12.2058 10.7101 11.3672 11.5556 10.3324 11.5556ZM15.6243 11.0025L14.7467 10.4917C14.7959 10.2235 14.8284 9.94962 14.8284 9.66667C14.8284 9.38409 14.7959 9.10983 14.7467 8.8416L15.6243 8.33084C15.9828 8.12231 16.1052 7.65991 15.8982 7.29875L15.1491 5.99014C14.9424 5.62898 14.4838 5.50469 14.1257 5.7136L13.239 6.22927C12.825 5.87416 12.3543 5.58364 11.8311 5.39664V4.75556C11.8311 4.33849 11.4956 4 11.0816 4H9.58328C9.16924 4 8.83377 4.33849 8.83377 4.75556V5.39664C8.31055 5.58364 7.83984 5.87416 7.42579 6.22927L6.53915 5.7136C6.18102 5.50469 5.72239 5.62898 5.51575 5.99014L4.76662 7.29875C4.55959 7.65991 4.68237 8.12231 5.0405 8.33084L5.91808 8.8416C5.86897 9.10983 5.83648 9.38409 5.83648 9.66667C5.83648 9.94962 5.86897 10.2235 5.91808 10.4917L5.0405 11.0025C4.68237 11.211 4.55959 11.6734 4.76662 12.0346L5.51575 13.3432C5.72239 13.7044 6.18102 13.8286 6.53915 13.6197L7.42579 13.1041C7.83984 13.4592 8.31055 13.7501 8.83377 13.9367V14.5778C8.83377 14.9948 9.16924 15.3333 9.58328 15.3333H11.0816C11.4956 15.3333 11.8311 14.9948 11.8311 14.5778V13.9367C12.3543 13.7501 12.825 13.4592 13.239 13.1041L14.1257 13.6197C14.4838 13.8286 14.9424 13.7044 15.1491 13.3432L15.8982 12.0346C16.1052 11.6734 15.9828 11.211 15.6243 11.0025ZM10.3324 8.53333C9.71173 8.53333 9.20853 9.04107 9.20853 9.66667C9.20853 10.2926 9.71173 10.8 10.3324 10.8C10.9531 10.8 11.4563 10.2926 11.4563 9.66667C11.4563 9.04107 10.9531 8.53333 10.3324 8.53333Z" fill="white"/>
</svg>
