<svg width="24" height="24" viewBox="0 0 24 24" fill="none" xmlns="http://www.w3.org/2000/svg">
<path fill-rule="evenodd" clip-rule="evenodd" d="M12 22C17.5228 22 22 17.5228 22 12C22 6.47715 17.5228 2 12 2C6.47715 2 2 6.47715 2 12C2 17.5228 6.47715 22 12 22ZM13.8279 6.5C13.8279 7.32843 13.1563 8 12.3279 8C11.4994 8 10.8279 7.32843 10.8279 6.5C10.8279 5.67157 11.4994 5 12.3279 5C13.1563 5 13.8279 5.67157 13.8279 6.5ZM9.479 11H11.1227L10.1053 16.0928C9.91311 17.117 10.3905 18.1506 11.2948 18.6684C12.1658 19.167 13.2529 19.0834 14.0374 18.4574L14.0787 18.4244C14.5521 18.0467 14.874 17.5114 14.9857 16.9162L15.2415 15.5532H13.2066L13.02 16.5473C12.9968 16.6711 12.9298 16.7825 12.8313 16.8611L12.7899 16.8941C12.6465 17.0086 12.4477 17.0239 12.2885 16.9327C12.1231 16.838 12.0359 16.649 12.071 16.4618L13.3107 10.1845C13.3656 9.89206 13.2874 9.5904 13.0974 9.36144C12.9074 9.13248 12.6254 9 12.3279 9H9.979L9.479 11Z" fill="white" fill-opacity="0.8"/>
</svg>
