<svg width="10" height="13" viewBox="0 0 10 13" fill="none" xmlns="http://www.w3.org/2000/svg">
<g clip-path="url(#clip0_131_3215)">
<path d="M0.896069 0.550892C0.00282691 1.1302 -0.172648 2.94104 0.164591 4.41692C0.427231 5.56625 0.985622 7.108 1.92721 8.55978C2.81299 9.92554 4.04877 11.1502 4.99107 11.8587C6.20111 12.7685 7.92607 13.3468 8.81932 12.7675C9.27099 12.4746 9.94204 11.6742 9.97266 11.5306C9.97266 11.5306 9.57916 10.9239 9.4928 10.7908L8.1732 8.75608C8.07514 8.60487 7.46018 8.74308 7.14778 8.92002C6.72637 9.1588 6.33827 9.79945 6.33827 9.79945C6.04933 9.9664 5.8073 9.80006 5.30162 9.56733C4.68014 9.28138 3.98139 8.39291 3.42526 7.58821C2.91732 6.75227 2.39104 5.75191 2.38343 5.06783C2.37716 4.51122 2.32399 4.22243 2.59427 4.02667C2.59427 4.02667 3.33751 3.93358 3.72738 3.64621C4.01635 3.43313 4.39332 2.92801 4.29527 2.77679L2.97566 0.742134C2.88931 0.608986 2.49581 0.00225164 2.49581 0.00225164C2.35217 -0.0283441 1.34774 0.257961 0.896069 0.550892Z" fill="#323232"/>
</g>
<defs>
<clipPath id="clip0_131_3215">
<rect width="9.9775" height="13" fill="white"/>
</clipPath>
</defs>
</svg>
