<svg width="20" height="20" viewBox="0 0 20 20" fill="none" xmlns="http://www.w3.org/2000/svg">
<rect width="20" height="20" rx="4" fill="#1C34FF"/>
<path opacity="0.68" d="M15.1135 9.23292V10C15.1135 12.4107 15.1135 13.6161 14.3646 14.365C13.6157 15.1139 12.4103 15.1139 9.99964 15.1139C7.58892 15.1139 6.38357 15.1139 5.63466 14.365C4.88574 13.6161 4.88574 12.4107 4.88574 10C4.88574 7.58929 4.88574 6.38393 5.63466 5.63502C6.38357 4.88611 7.58892 4.88611 9.99964 4.88611H10.7667" stroke="white" stroke-width="1.1" stroke-linecap="round"/>
<path d="M13.2027 4.79072L12.8708 5.12252L9.8205 8.1729C9.6139 8.3795 9.51059 8.48278 9.42173 8.59672C9.31693 8.73106 9.22708 8.87645 9.15377 9.03028C9.09162 9.16068 9.04542 9.29927 8.95302 9.57649L8.6572 10.464L8.46578 11.0382C8.42031 11.1746 8.45581 11.325 8.55749 11.4267C8.65916 11.5284 8.80956 11.5639 8.94596 11.5184L9.52021 11.327L10.4077 11.0311C10.6849 10.9387 10.8235 10.8926 10.9539 10.8304C11.1077 10.7571 11.2531 10.6672 11.3874 10.5625C11.5014 10.4736 11.6047 10.3703 11.8113 10.1637L14.8616 7.11331L15.1935 6.78151C15.7432 6.23177 15.7432 5.34047 15.1935 4.79072C14.6437 4.24098 13.7524 4.24098 13.2027 4.79072Z" stroke="white" stroke-width="1.1"/>
<path opacity="0.68" d="M12.8709 5.12253C12.8709 5.12253 12.9123 5.8276 13.5345 6.44972C14.1566 7.07184 14.8617 7.11331 14.8617 7.11331M9.52025 11.327L8.65723 10.464" stroke="white" stroke-width="1.1"/>
</svg>
