<svg width="20" height="20" viewBox="0 0 20 20" fill="none" xmlns="http://www.w3.org/2000/svg">
<rect width="20" height="20" rx="4" fill="#FF272C"/>
<g clip-path="url(#clip0_30_8602)">
<path d="M6.81667 3C5.27123 3 4 4.27123 4 5.81667V13.1833C4 14.7288 5.27123 16 6.81667 16H10.5342C11.9697 16 13.168 14.903 13.3312 13.5083H11.5711C11.4386 13.956 11.0352 14.2667 10.5342 14.2667H6.81667C6.20151 14.2667 5.73333 13.7985 5.73333 13.1833V5.81667C5.73333 5.20151 6.20151 4.73333 6.81667 4.73333H10.5342C11.0352 4.73333 11.4386 5.04403 11.5711 5.49167H13.3312C13.168 4.09705 11.9697 3 10.5342 3H6.81667Z" fill="white"/>
<path d="M14.332 6.8999C14.2181 6.8999 14.1054 6.92231 14.0003 6.96586C13.8951 7.00941 13.7996 7.07325 13.7191 7.15372C13.6386 7.2342 13.5748 7.32974 13.5312 7.4349C13.4877 7.54005 13.4653 7.65275 13.4653 7.76657C13.4653 7.88039 13.4877 7.99309 13.5312 8.09824C13.5748 8.20339 13.6386 8.29894 13.7191 8.37941L13.9729 8.63324H7.54733C7.31748 8.63324 7.09704 8.72454 6.9345 8.88708C6.77197 9.04961 6.68066 9.27005 6.68066 9.4999C6.68066 9.72976 6.77197 9.9502 6.9345 10.1127C7.09704 10.2753 7.31748 10.3666 7.54733 10.3666H13.9729L13.7191 10.6204C13.6386 10.7009 13.5748 10.7964 13.5312 10.9016C13.4877 11.0067 13.4653 11.1194 13.4653 11.2332C13.4653 11.3471 13.4877 11.4598 13.5312 11.5649C13.5748 11.6701 13.6386 11.7656 13.7191 11.8461C13.7996 11.9266 13.8951 11.9904 14.0003 12.034C14.1054 12.0775 14.2181 12.0999 14.332 12.0999C14.4458 12.0999 14.5585 12.0775 14.6636 12.034C14.7688 11.9904 14.8643 11.9266 14.9448 11.8461L16.5219 10.2689C16.6648 10.1973 16.785 10.0875 16.8694 9.95181C16.9537 9.81609 16.9989 9.65969 16.9999 9.4999C16.9997 9.33766 16.954 9.17874 16.8679 9.04121C16.7818 8.90368 16.6589 8.79307 16.5131 8.72198L14.9448 7.15372C14.8643 7.07325 14.7688 7.00941 14.6636 6.96586C14.5585 6.92231 14.4458 6.8999 14.332 6.8999Z" fill="white"/>
</g>
<defs>
<clipPath id="clip0_30_8602">
<rect width="13" height="13" fill="white" transform="translate(4 3)"/>
</clipPath>
</defs>
</svg>
