<svg width="24" height="24" viewBox="0 0 24 24" fill="none" xmlns="http://www.w3.org/2000/svg">
<path d="M7.38461 11.0966L7.76779 11.0635C7.75005 10.8588 7.5738 10.7043 7.36803 10.7132C7.16225 10.7221 7 10.8911 7 11.0966H7.38461ZM16.2236 12.0294L15.8618 14.1167L16.6198 14.2475L16.9815 12.1601L16.2236 12.0294ZM12.6384 16.7326H10.2545V17.5H12.6384V16.7326ZM9.78714 16.3041L9.37065 11.4985L8.60429 11.5646L9.02078 16.3702L9.78714 16.3041ZM15.8618 14.1167C15.6019 15.616 14.2468 16.7326 12.6384 16.7326V17.5C14.6005 17.5 16.2926 16.1345 16.6198 14.2475L15.8618 14.1167ZM12.6434 8.46984L12.3036 10.5392L13.0627 10.6632L13.4026 8.59393L12.6434 8.46984ZM9.53214 11.1024L10.27 10.4681L9.76781 9.88674L9.03001 10.5211L9.53214 11.1024ZM11.6123 8.40431L11.8562 7.46606L11.1117 7.27336L10.8677 8.21161L11.6123 8.40431ZM12.2247 7.28197L12.299 7.3058L12.5343 6.57514L12.4599 6.55131L12.2247 7.28197ZM11.2428 9.34771C11.4027 9.04892 11.527 8.73243 11.6123 8.40431L10.8677 8.21161C10.7978 8.48055 10.6959 8.74038 10.5643 8.98612L11.2428 9.34771ZM12.299 7.3058C12.4562 7.35617 12.5677 7.47725 12.6044 7.61833L13.349 7.42564C13.2436 7.02042 12.9328 6.70285 12.5343 6.57514L12.299 7.3058ZM11.8562 7.46606C11.8742 7.39698 11.9242 7.33351 11.9998 7.29713L11.6659 6.60578C11.3931 6.73693 11.1882 6.97902 11.1117 7.27336L11.8562 7.46606ZM11.9998 7.29713C12.0689 7.26391 12.1503 7.25813 12.2247 7.28197L12.4599 6.55131C12.1986 6.46753 11.9134 6.4868 11.6659 6.60578L11.9998 7.29713ZM13.1044 11.4803H15.7614V10.7128H13.1044V11.4803ZM8.26604 16.8124L7.76779 11.0635L7.00143 11.1296L7.49968 16.8785L8.26604 16.8124ZM7.76922 16.867V11.0966H7V16.867H7.76922ZM7.49968 16.8785C7.49292 16.8005 7.55459 16.7326 7.6342 16.7326V17.5C8.00649 17.5 8.29805 17.1817 8.26604 16.8124L7.49968 16.8785ZM13.4026 8.59393C13.4664 8.20503 13.4482 7.80709 13.349 7.42564L12.6044 7.61833C12.6767 7.89635 12.69 8.18638 12.6434 8.46984L13.4026 8.59393ZM10.2545 16.7326C10.0115 16.7326 9.80818 16.5468 9.78714 16.3041L9.02078 16.3702C9.07614 17.0089 9.61162 17.5 10.2545 17.5V16.7326ZM10.27 10.4681C10.6186 10.1684 10.9944 9.8116 11.2428 9.34771L10.5643 8.98612C10.3867 9.31788 10.1038 9.59787 9.76781 9.88674L10.27 10.4681ZM16.9815 12.1601C17.1125 11.4047 16.5302 10.7128 15.7614 10.7128V11.4803C16.0519 11.4803 16.2733 11.7421 16.2236 12.0294L16.9815 12.1601ZM7.6342 16.7326C7.70918 16.7326 7.76922 16.7931 7.76922 16.867H7C7 17.2162 7.28353 17.5 7.6342 17.5V16.7326ZM12.3036 10.5392C12.2227 11.0318 12.6033 11.4803 13.1044 11.4803V10.7128C13.0788 10.7128 13.0584 10.6897 13.0627 10.6632L12.3036 10.5392ZM9.37065 11.4985C9.35762 11.3481 9.4178 11.2007 9.53214 11.1024L9.03001 10.5211C8.7283 10.7804 8.56998 11.1688 8.60429 11.5646L9.37065 11.4985Z" fill="#03CC60"/>
</svg>
