<svg width="161" height="30" viewBox="0 0 161 30" fill="none" xmlns="http://www.w3.org/2000/svg">
<g clip-path="url(#clip0_348_35)">
<g clip-path="url(#clip1_348_35)">
<path fill-rule="evenodd" clip-rule="evenodd" d="M3.7962 9.44336C4.54997 9.44336 5.16125 10.0749 5.16125 10.8536C5.16125 11.6323 4.54997 12.2638 3.7962 12.2638C3.04243 12.2638 2.43115 11.6323 2.43115 10.8536C2.43115 10.0749 3.04243 9.44336 3.7962 9.44336Z" fill="#5289AE"/>
<path fill-rule="evenodd" clip-rule="evenodd" d="M3.79636 9.76099C4.38035 9.76099 4.85394 10.2503 4.85394 10.8536C4.85394 11.4569 4.38035 11.9462 3.79636 11.9462C3.21237 11.9462 2.73877 11.4569 2.73877 10.8536C2.73877 10.2503 3.21237 9.76099 3.79636 9.76099Z" fill="#78D2EB"/>
<path d="M24.2698 21.2366V22.3856V23.4343V23.5091L24.2095 23.5511L15.0378 29.9535L14.9616 30.0067L14.8853 29.9535L5.71357 23.5511L5.65332 23.5091V23.4343V22.3856V21.2366H5.92633V22.3856V23.3596L14.9616 29.6667L23.9968 23.3596V22.3856V21.2366H24.2698Z" fill="url(#paint0_linear_348_35)"/>
<path d="M5.71251 6.62349L14.8842 0.0548723L14.9616 -0.000488281L15.0389 0.0548723L24.2106 6.62349L24.2698 6.66589V6.73918V7.77286V15.3801H23.9968V7.77286V6.81248L14.9616 0.341631L5.92633 6.81248V7.77286V15.3801H5.65332V7.77286V6.73918V6.66589L5.71251 6.62349Z" fill="url(#paint1_linear_348_35)"/>
<path d="M23.6329 21.2366V22.3856V23.0847V23.1595L23.5727 23.2015L15.038 29.1592L14.9617 29.2124L14.8855 29.1592L6.35079 23.2015L6.29053 23.1595V23.0847V22.3856V21.2366H6.56354V22.3856V23.01L14.9617 28.8724L23.3599 23.01V22.3856V21.2366H23.6329Z" fill="url(#paint2_linear_348_35)"/>
<path d="M6.34972 6.96805L14.8844 0.855664L14.9617 0.800293L15.039 0.855664L23.5737 6.96805L23.6329 7.01045V7.08374V7.77286V15.3801H23.3599V7.77286V7.15703L14.9617 1.14241L6.56354 7.15703V7.77286V15.3801H6.29053V7.77286V7.08374V7.01045L6.34972 6.96805Z" fill="url(#paint3_linear_348_35)"/>
<path d="M22.9961 21.2366V22.3856V22.7352V22.8099L22.9359 22.8519L15.0382 28.3649L14.9619 28.4182L14.8857 28.3649L6.98799 22.8519L6.92773 22.8099V22.7352V22.3856V21.2366H7.20074V22.3856V22.6604L14.9619 28.0781L22.7231 22.6604V22.3856V21.2366H22.9961Z" fill="url(#paint4_linear_348_35)"/>
<path d="M6.98693 7.31262L14.8846 1.65644L14.9619 1.60107L15.0392 1.65644L22.9369 7.31262L22.9961 7.355V7.42831V7.77286V15.3801H22.7231V7.77286V7.5016L14.9619 1.94319L7.20074 7.5016V7.77286V15.3801H6.92773V7.77286V7.42831L6.92774 7.355L6.98693 7.31262Z" fill="url(#paint5_linear_348_35)"/>
<path d="M7.70117 7.77294L14.9618 2.573L22.2225 7.77294C22.2225 12.6878 22.2225 17.471 22.2225 22.3858L14.9618 27.4541L7.70117 22.3858C7.70117 17.471 7.70117 12.6878 7.70117 7.77294Z" fill="url(#paint6_linear_348_35)"/>
<path fill-rule="evenodd" clip-rule="evenodd" d="M8.15625 8.01885C8.15625 12.7245 8.15625 17.4302 8.15625 22.1358L14.9619 26.8865L21.7675 22.1358C21.7675 17.4302 21.7675 12.7245 21.7675 8.01885L14.9619 3.14478L8.15625 8.01885Z" fill="#1D1E22"/>
<path d="M8.33838 8.11751C8.33838 12.7571 8.33838 17.3966 8.33838 22.0362L14.962 26.6598L21.5857 22.0362C21.5857 17.3966 21.5857 12.7571 21.5857 8.11751L14.962 3.37378L8.33838 8.11751Z" fill="url(#paint7_linear_348_35)"/>
<path d="M-0.0537109 14.7219H29.9773V21.8947H-0.0537109V14.7219Z" fill="url(#paint8_linear_348_35)"/>
<path fill-rule="evenodd" clip-rule="evenodd" d="M0.375 15.1921H29.5488V21.4247H0.375V15.1921Z" fill="#1D1E22"/>
<path d="M0.546387 15.3801H29.3773V21.2367H0.546387V15.3801Z" fill="url(#paint9_linear_348_35)"/>
<path fill-rule="evenodd" clip-rule="evenodd" d="M3.79617 9.92676C4.29163 9.92676 4.69341 10.3418 4.69341 10.8537C4.69341 11.3656 4.29163 11.7807 3.79617 11.7807C3.30071 11.7807 2.89893 11.3656 2.89893 10.8537C2.89893 10.3418 3.30071 9.92676 3.79617 9.92676Z" fill="#E8FDFC"/>
<path fill-rule="evenodd" clip-rule="evenodd" d="M3.79615 10.144C4.17539 10.144 4.48293 10.4618 4.48293 10.8536C4.48293 11.2454 4.17539 11.5631 3.79615 11.5631C3.41691 11.5631 3.10938 11.2454 3.10938 10.8536C3.10938 10.4618 3.41691 10.144 3.79615 10.144Z" fill="#3E627A"/>
<path fill-rule="evenodd" clip-rule="evenodd" d="M3.24707 10.8536L3.79609 10.446L4.34509 10.8536L3.79609 11.2612L3.24707 10.8536ZM3.40004 10.8536L3.79609 10.5596L4.19213 10.8536L3.79609 11.1476L3.40004 10.8536Z" fill="#E8FDFC"/>
<path fill-rule="evenodd" clip-rule="evenodd" d="M3.62891 7.58496H3.90175V8.98275C3.86687 8.98068 3.83177 8.97952 3.79639 8.97952C3.73991 8.97952 3.68407 8.98233 3.62891 8.98755V7.58496ZM3.90175 12.7246V14.1869H3.62891V12.7198C3.68407 12.725 3.73991 12.7278 3.79639 12.7278C3.83177 12.7278 3.86687 12.7266 3.90175 12.7246Z" fill="#3E627A"/>
<path fill-rule="evenodd" clip-rule="evenodd" d="M3.69226 22.312V26.6835H3.51025V22.312H3.69226Z" fill="#5289AE"/>
<path fill-rule="evenodd" clip-rule="evenodd" d="M4.94828 22.312V23.0355C5.06981 23.0753 5.15791 23.1928 5.15791 23.3316C5.15791 23.4703 5.06981 23.5878 4.94828 23.6277V24.9929H4.76628V23.6276C4.64475 23.5878 4.55664 23.4703 4.55664 23.3316C4.55664 23.1928 4.64475 23.0753 4.76628 23.0355V22.312H4.94828Z" fill="#3E627A"/>
<path fill-rule="evenodd" clip-rule="evenodd" d="M6.20397 24.2903V26.9712H6.02197V24.2903H6.20397Z" fill="#5289AE"/>
<path fill-rule="evenodd" clip-rule="evenodd" d="M2.4364 22.312V24.1468H2.25439V22.312H2.4364Z" fill="#33679A"/>
<path fill-rule="evenodd" clip-rule="evenodd" d="M2.7196 5.56201V8.53251H2.5376V5.56201H2.7196Z" fill="#576878"/>
<path fill-rule="evenodd" clip-rule="evenodd" d="M4.95496 3.18799V8.88496H4.77295V3.18799H4.95496Z" fill="#5C9FC1"/>
<path fill-rule="evenodd" clip-rule="evenodd" d="M6.69763 2.02637V3.38364H6.51562V2.02637H6.69763ZM6.69763 3.75035V4.99784H6.51562V3.75035H6.69763Z" fill="#83E5FA"/>
<path fill-rule="evenodd" clip-rule="evenodd" d="M1.33517 10.2815C1.48809 10.2815 1.62659 10.3456 1.72684 10.4491C1.82709 10.5527 1.88911 10.6958 1.88911 10.8538C1.88911 11.0118 1.82709 11.1548 1.72684 11.2584C1.62659 11.362 1.48809 11.426 1.33517 11.426C1.18226 11.426 1.04377 11.362 0.943518 11.2584C0.843268 11.1548 0.78125 11.0118 0.78125 10.8538C0.78125 10.6958 0.843268 10.5527 0.943518 10.4491C1.04377 10.3456 1.18226 10.2815 1.33517 10.2815ZM1.59815 10.5821C1.53085 10.5126 1.43786 10.4695 1.33517 10.4695C1.23249 10.4695 1.13949 10.5126 1.07219 10.5821C1.00489 10.6516 0.963259 10.7477 0.963259 10.8538C0.963259 10.9598 1.00489 11.0559 1.07219 11.1254C1.13949 11.195 1.23249 11.238 1.33517 11.238C1.43786 11.238 1.53085 11.195 1.59815 11.1254C1.66545 11.0559 1.7071 10.9598 1.7071 10.8538C1.7071 10.7477 1.66545 10.6516 1.59815 10.5821Z" fill="#3E627A"/>
<path fill-rule="evenodd" clip-rule="evenodd" d="M3.83728 4.32788V6.88208H3.65527V4.32788H3.83728Z" fill="#5289AE"/>
<path fill-rule="evenodd" clip-rule="evenodd" d="M2.4458 16.3609V20.256H3.85696C4.1918 20.2551 4.48356 20.2059 4.73132 20.1104C4.97998 20.0149 5.18555 19.8804 5.34803 19.706C5.51142 19.5317 5.6335 19.3258 5.7134 19.0893C5.79419 18.8528 5.83368 18.5922 5.83368 18.3084C5.83368 18.0247 5.79419 17.764 5.7134 17.5276C5.6335 17.2911 5.51142 17.0852 5.34803 16.9108C5.18555 16.7365 4.97998 16.602 4.73132 16.5065C4.48356 16.4109 4.1918 16.3618 3.85696 16.3609H2.4458ZM5.0096 18.3084C5.00873 18.7091 4.90996 19.0114 4.71426 19.2154C4.51857 19.4185 4.2322 19.5206 3.85696 19.5215H3.25371V17.0954H3.85696C4.2322 17.0954 4.51857 17.1974 4.71426 17.4014C4.90996 17.6045 5.0087 17.9069 5.0096 18.3084ZM6.47141 18.3084C6.47141 18.5208 6.49833 18.7267 6.55129 18.9252C6.60516 19.1236 6.68505 19.3082 6.79188 19.4779C6.8987 19.6486 7.03246 19.7979 7.19315 19.9259C7.35293 20.0538 7.53965 20.1531 7.75331 20.2245C7.96786 20.2968 8.20754 20.333 8.47505 20.3339C8.74256 20.333 8.98224 20.2968 9.19679 20.2245C9.41044 20.1531 9.59717 20.0538 9.75695 19.9259C9.91764 19.7979 10.0514 19.6486 10.1582 19.4779C10.265 19.3082 10.3449 19.1236 10.3988 18.9252C10.4518 18.7267 10.4787 18.5208 10.4787 18.3084C10.4787 18.0961 10.4518 17.8902 10.3988 17.6917C10.3449 17.4932 10.265 17.3087 10.1582 17.139C10.0514 16.9683 9.91764 16.819 9.75695 16.691C9.59717 16.5631 9.41044 16.4638 9.19679 16.3924C8.98224 16.3201 8.74256 16.2839 8.47505 16.283C8.20754 16.2839 7.96786 16.3201 7.75331 16.3924C7.53965 16.4638 7.35293 16.5631 7.19315 16.691C7.03246 16.819 6.8987 16.9683 6.79188 17.139C6.68505 17.3087 6.60516 17.4932 6.55129 17.6917C6.49833 17.8902 6.47141 18.0961 6.47141 18.3084ZM9.64922 18.3084C9.64922 18.4809 9.62498 18.6423 9.57562 18.7925C9.52624 18.9437 9.45264 19.0763 9.35479 19.1913C9.25694 19.3063 9.13485 19.3963 8.98763 19.4612C8.8413 19.5261 8.67074 19.5595 8.47505 19.5604C8.27845 19.5596 8.1061 19.5261 7.95888 19.4612C7.81166 19.3963 7.68867 19.3063 7.59082 19.1913C7.49207 19.0763 7.41847 18.9437 7.36909 18.7925C7.31972 18.6423 7.29548 18.4809 7.29548 18.3084C7.29548 18.1359 7.31972 17.9746 7.36909 17.8243C7.41847 17.6731 7.49207 17.5405 7.59082 17.4255C7.68867 17.3105 7.81166 17.2206 7.95888 17.1557C8.1061 17.0907 8.27845 17.0574 8.47505 17.0564C8.67074 17.0573 8.8413 17.0907 8.98763 17.1557C9.13485 17.2206 9.25694 17.3105 9.35479 17.4255C9.45264 17.5405 9.52624 17.6731 9.57562 17.8243C9.62498 17.9746 9.64922 18.1359 9.64922 18.3084ZM12.1236 20.256V18.2472C12.1236 18.1573 12.1228 18.0664 12.12 17.9736C12.1173 17.8818 12.1128 17.7946 12.1075 17.713L13.8633 20.256H14.6228V16.3609H13.8149V18.3696C13.8149 18.4596 13.8167 18.5505 13.8194 18.6432C13.8221 18.7351 13.8256 18.8222 13.831 18.9038L12.0751 16.3609H11.3157V20.256H12.1236ZM15.5621 18.5755V19.2266H17.5658V18.5755H15.5621ZM20.428 20.256L21.8984 16.3609H21.0258L20.0132 19.2767L19.006 16.3609H18.1335L19.5985 20.256H20.428ZM22.5738 16.3609V20.256H23.3817V16.3609H22.5738ZM24.4288 16.3609V20.256H25.2367V18.9762H25.8507C26.0796 18.9771 26.2924 18.9567 26.489 18.9131C26.6856 18.8704 26.8579 18.799 27.0052 18.6998C27.1533 18.6006 27.2682 18.4661 27.3508 18.2973C27.4343 18.1294 27.4756 17.9189 27.4774 17.6685C27.4756 17.4181 27.4343 17.2076 27.3508 17.0397C27.2682 16.8709 27.1533 16.7365 27.0052 16.6372C26.8579 16.538 26.6856 16.4666 26.489 16.4239C26.2924 16.3803 26.0796 16.3599 25.8507 16.3609H24.4288ZM26.6533 17.6685C26.6524 17.7817 26.6317 17.8763 26.5922 17.9505C26.5518 18.0247 26.4971 18.084 26.4262 18.1257C26.3561 18.1684 26.2745 18.199 26.1829 18.2166C26.0913 18.2333 25.9926 18.2426 25.8884 18.2417H25.2367V17.0954H25.8884C25.9926 17.0945 26.0913 17.1028 26.1829 17.1204C26.2745 17.1371 26.3561 17.1668 26.4262 17.2085C26.4971 17.2512 26.5518 17.3096 26.5922 17.3838C26.6317 17.4589 26.6524 17.5535 26.6533 17.6685Z" fill="white"/>
<path fill-rule="evenodd" clip-rule="evenodd" d="M2.4458 18.5061V20.2561H3.85696C4.1918 20.2552 4.48356 20.206 4.73132 20.1105C4.97998 20.015 5.18555 19.8805 5.34803 19.7061C5.51142 19.5318 5.6335 19.3259 5.7134 19.0894C5.77507 18.9089 5.81266 18.7143 5.82701 18.5061H5.0005C4.97195 18.81 4.87638 19.0465 4.71426 19.2155C4.51857 19.4186 4.2322 19.5206 3.85696 19.5216H3.25371V18.5061H2.4458ZM6.4793 18.5061C6.49082 18.6491 6.51492 18.7889 6.55129 18.9252C6.60516 19.1237 6.68505 19.3083 6.79188 19.478C6.89871 19.6486 7.03246 19.7979 7.19315 19.9259C7.35293 20.0539 7.53965 20.1531 7.75331 20.2245C7.96786 20.2969 8.20754 20.3331 8.47505 20.334C8.74256 20.3331 8.98224 20.2969 9.19679 20.2245C9.41045 20.1531 9.59717 20.0539 9.75695 19.9259C9.91764 19.7979 10.0514 19.6486 10.1582 19.478C10.265 19.3083 10.3449 19.1237 10.3988 18.9252C10.4352 18.7889 10.4593 18.6491 10.4708 18.5061H9.63801C9.62638 18.6057 9.60565 18.7012 9.57562 18.7926C9.52624 18.9438 9.45264 19.0764 9.35479 19.1914C9.25694 19.3064 9.13485 19.3964 8.98763 19.4613C8.8413 19.5262 8.67074 19.5596 8.47505 19.5605C8.27845 19.5596 8.1061 19.5262 7.95888 19.4613C7.81166 19.3964 7.68867 19.3064 7.59082 19.1914C7.49207 19.0764 7.41847 18.9438 7.36909 18.7926C7.33906 18.7012 7.31833 18.6057 7.3067 18.5061H6.4793ZM12.1236 20.2561V18.5061H11.3157V20.2561H12.1236ZM12.655 18.5061L13.8633 20.2561H14.6228V18.5061H13.8161C13.8169 18.5515 13.818 18.5972 13.8194 18.6433C13.8221 18.7351 13.8256 18.8223 13.831 18.9039L13.5563 18.5061H12.655ZM15.5621 18.5756V19.2266H17.5658V18.5756H15.5621ZM20.428 20.2561L21.0886 18.5061H20.2809L20.0132 19.2767L19.747 18.5061H18.9403L19.5985 20.2561H20.428ZM22.5738 18.5061V20.2561H23.3817V18.5061H22.5738ZM24.4288 18.5061V20.2561H25.2367V18.9762H25.8507C26.0796 18.9771 26.2924 18.9568 26.489 18.9132C26.6856 18.8705 26.8579 18.7991 27.0052 18.6999C27.086 18.6457 27.1569 18.5811 27.2181 18.5061H24.4288Z" fill="#CFD5DA"/>
<path fill-rule="evenodd" clip-rule="evenodd" d="M26.1273 9.44336C25.3735 9.44336 24.7622 10.0749 24.7622 10.8536C24.7622 11.6323 25.3735 12.2638 26.1273 12.2638C26.881 12.2638 27.4923 11.6323 27.4923 10.8536C27.4923 10.0749 26.881 9.44336 26.1273 9.44336Z" fill="#5289AE"/>
<path fill-rule="evenodd" clip-rule="evenodd" d="M26.1274 9.76099C25.5434 9.76099 25.0698 10.2503 25.0698 10.8536C25.0698 11.4569 25.5434 11.9462 26.1274 11.9462C26.7114 11.9462 27.185 11.4569 27.185 10.8536C27.185 10.2503 26.7114 9.76099 26.1274 9.76099Z" fill="#78D2EB"/>
<path fill-rule="evenodd" clip-rule="evenodd" d="M26.1272 9.92676C25.6318 9.92676 25.23 10.3418 25.23 10.8537C25.23 11.3656 25.6318 11.7807 26.1272 11.7807C26.6227 11.7807 27.0245 11.3656 27.0245 10.8537C27.0245 10.3418 26.6227 9.92676 26.1272 9.92676Z" fill="#E8FDFC"/>
<path fill-rule="evenodd" clip-rule="evenodd" d="M26.1272 10.144C25.748 10.144 25.4404 10.4618 25.4404 10.8536C25.4404 11.2454 25.748 11.5631 26.1272 11.5631C26.5064 11.5631 26.814 11.2454 26.814 10.8536C26.814 10.4618 26.5064 10.144 26.1272 10.144Z" fill="#3E627A"/>
<path fill-rule="evenodd" clip-rule="evenodd" d="M26.6761 10.8536L26.1271 10.446L25.5781 10.8536L26.1271 11.2612L26.6761 10.8536ZM26.5232 10.8536L26.1271 10.5596L25.7311 10.8536L26.1271 11.1476L26.5232 10.8536Z" fill="#E8FDFC"/>
<path fill-rule="evenodd" clip-rule="evenodd" d="M26.2948 7.58496H26.022V8.98275C26.0569 8.98068 26.092 8.97952 26.1273 8.97952C26.1838 8.97952 26.2397 8.98233 26.2948 8.98755V7.58496ZM26.022 12.7246V14.1869H26.2948V12.7198C26.2397 12.725 26.1838 12.7278 26.1273 12.7278C26.092 12.7278 26.0569 12.7266 26.022 12.7246Z" fill="#3E627A"/>
<path fill-rule="evenodd" clip-rule="evenodd" d="M26.2314 22.312V26.6835H26.4135V22.312H26.2314Z" fill="#5289AE"/>
<path fill-rule="evenodd" clip-rule="evenodd" d="M24.9753 22.312V23.0355C24.8537 23.0753 24.7656 23.1928 24.7656 23.3316C24.7656 23.4703 24.8537 23.5878 24.9753 23.6277V24.9929H25.1573V23.6276C25.2788 23.5878 25.3669 23.4703 25.3669 23.3316C25.3669 23.1928 25.2788 23.0753 25.1573 23.0355V22.312H24.9753Z" fill="#3E627A"/>
<path fill-rule="evenodd" clip-rule="evenodd" d="M23.7192 24.2903V26.9712H23.9012V24.2903H23.7192Z" fill="#5289AE"/>
<path fill-rule="evenodd" clip-rule="evenodd" d="M27.4873 22.312V24.1468H27.6693V22.312H27.4873Z" fill="#33679A"/>
<path fill-rule="evenodd" clip-rule="evenodd" d="M27.2041 5.56201V8.53251H27.3861V5.56201H27.2041Z" fill="#576878"/>
<path fill-rule="evenodd" clip-rule="evenodd" d="M24.9688 3.18799V8.88496H25.1507V3.18799H24.9688Z" fill="#5C9FC1"/>
<path fill-rule="evenodd" clip-rule="evenodd" d="M23.2261 2.02637V3.38364H23.4081V2.02637H23.2261ZM23.2261 3.75035V4.99784H23.4081V3.75035H23.2261Z" fill="#83E5FA"/>
<path fill-rule="evenodd" clip-rule="evenodd" d="M28.5886 10.4695C28.4859 10.4695 28.3929 10.5126 28.3256 10.5821C28.2583 10.6516 28.2167 10.7477 28.2167 10.8538C28.2167 10.9598 28.2583 11.0559 28.3256 11.1254C28.3929 11.195 28.4859 11.238 28.5886 11.238C28.6913 11.238 28.7843 11.195 28.8516 11.1254C28.9189 11.0559 28.9605 10.9598 28.9605 10.8538C28.9605 10.7477 28.9189 10.6516 28.8516 10.5821C28.7843 10.5126 28.6913 10.4695 28.5886 10.4695ZM28.1969 10.4491C28.2972 10.3456 28.4357 10.2815 28.5886 10.2815C28.7415 10.2815 28.88 10.3456 28.9802 10.4491C29.0805 10.5527 29.1425 10.6958 29.1425 10.8538C29.1425 11.0118 29.0805 11.1548 28.9802 11.2584C28.88 11.362 28.7415 11.426 28.5886 11.426C28.4357 11.426 28.2972 11.362 28.1969 11.2584C28.0967 11.1548 28.0347 11.0118 28.0347 10.8538C28.0347 10.6958 28.0967 10.5527 28.1969 10.4491Z" fill="#3E627A"/>
<path fill-rule="evenodd" clip-rule="evenodd" d="M26.0864 4.32788V6.88208H26.2684V4.32788H26.0864Z" fill="#5289AE"/>
<path fill-rule="evenodd" clip-rule="evenodd" d="M28.5884 10.7803H29.8933V10.927H28.5884V10.7803Z" fill="#5289AE"/>
<path fill-rule="evenodd" clip-rule="evenodd" d="M0.0302734 10.7803H1.3352V10.927H0.0302734V10.7803Z" fill="#5289AE"/>
<path fill-rule="evenodd" clip-rule="evenodd" d="M9.16016 9.11546L9.16017 8.79891L14.9616 5.02002L20.7628 8.79891V9.11546L14.9616 14.6211L9.16016 9.11546ZM10.4741 8.90296H11.7301L14.9616 6.37063L18.3682 8.90296H19.449L14.9616 5.75267L10.4741 8.90296ZM12.8151 8.90296H17.2833L14.9616 7.04747L12.8151 8.90296ZM19.54 9.23394H18.4592L14.9616 13.4586L11.6391 9.23394H10.3831L14.9616 13.8885L19.54 9.23394ZM17.2833 9.25812H12.8151L14.9616 12.8757L17.2833 9.25812Z" fill="#1D1E22"/>
<path d="M9.16016 8.79905L14.9616 4.70361L20.7628 8.79905L14.9616 14.3047L9.16016 8.79905ZM10.4741 8.58655H11.7301L14.9616 6.05421L18.3682 8.58655H19.449L14.9616 5.43627L10.4741 8.58655ZM12.8151 8.58655H17.2833L14.9616 6.73107L12.8151 8.58655ZM19.449 9.01154H18.3682L14.9616 13.1422L11.7301 9.01154H10.4741L14.9616 13.5721L19.449 9.01154ZM17.2833 9.01154H12.8151L14.9616 12.5593L17.2833 9.01154Z" fill="url(#paint10_linear_348_35)"/>
</g>
<path d="M49.4355 8.54V14H39.4355V4H44.8955L49.4355 8.54ZM43.9755 6.2H41.6355V11.8H47.2355V9.46L43.9755 6.2ZM51.4277 14V3.98H61.4277V14H51.4277ZM53.6277 6.2V11.8H59.2077V6.2H53.6277ZM63.4199 14V4.06L71.2399 9.8V4.06H73.4199V14.06L65.5999 8.4V14H63.4199ZM75.2121 9.74V7.5H83.6121V9.74H75.2121ZM90.8721 14H85.4121V4H87.6121V11.8H89.9521L93.2121 8.54V4H95.4121V9.46L90.8721 14ZM97.4043 14V11.8H101.224V6.2H97.4043V4H107.404V6.2H103.424V11.8H107.404V14H97.4043ZM109.396 14V3.98H119.396V10.1H111.596V14H109.396ZM117.196 7.88V6.18H111.596V7.88H117.196ZM121.389 14V11.8H123.589V14H121.389ZM135.588 11.8V14H125.588V4H135.588V6.2H127.788V11.8H135.588ZM137.58 14V3.98H147.58V14H137.58ZM139.78 6.2V11.8H145.36V6.2H139.78ZM151.472 14H149.572V4L154.652 8.32L159.572 4V14H157.672V8.6L154.652 11.02L151.472 8.6V14Z" fill="#111B1B"/>
<path d="M43.6562 22.9111V24H39.4082V22.9111H43.6562ZM39.75 22.9111V25.748H38.5098L38.4463 22.9111H39.75ZM44.6328 22.9111L44.5352 25.748H43.3242V22.9111H44.6328ZM42.8994 16.8906V17.9844H40.0967V16.8906H42.8994ZM43.8711 16.8906V24H42.5723V16.8906H43.8711ZM39.8867 16.8906H41.1953L41.0293 19.791C41.0065 20.2598 40.9658 20.6764 40.9072 21.041C40.8519 21.4056 40.7819 21.7279 40.6973 22.0078C40.6126 22.2878 40.5182 22.5335 40.4141 22.7451C40.3132 22.9535 40.2041 23.1357 40.0869 23.292C39.9697 23.445 39.8493 23.5801 39.7256 23.6973C39.6019 23.8112 39.4782 23.9121 39.3545 24H38.666V22.9111H38.9395C39.0176 22.8298 39.0973 22.7191 39.1787 22.5791C39.2633 22.4359 39.3415 22.2454 39.4131 22.0078C39.4847 21.7702 39.5482 21.4707 39.6035 21.1094C39.6589 20.748 39.6995 20.3086 39.7256 19.791L39.8867 16.8906ZM45.2188 21.5537V21.168C45.2188 20.7546 45.2692 20.39 45.3701 20.0742C45.471 19.7552 45.6143 19.4883 45.7998 19.2734C45.9854 19.0586 46.2067 18.8958 46.4639 18.7852C46.7243 18.6745 47.0124 18.6191 47.3281 18.6191C47.6504 18.6191 47.9401 18.6745 48.1973 18.7852C48.4577 18.8958 48.6807 19.0586 48.8662 19.2734C49.055 19.4883 49.1982 19.7552 49.2959 20.0742C49.3968 20.39 49.4473 20.7546 49.4473 21.168V21.5537C49.4473 21.9671 49.3968 22.3317 49.2959 22.6475C49.1982 22.9632 49.055 23.2301 48.8662 23.4482C48.6807 23.6631 48.4577 23.8258 48.1973 23.9365C47.9401 24.0439 47.6536 24.0977 47.3379 24.0977C47.0221 24.0977 46.734 24.0439 46.4736 23.9365C46.2165 23.8258 45.9935 23.6631 45.8047 23.4482C45.6159 23.2301 45.471 22.9632 45.3701 22.6475C45.2692 22.3317 45.2188 21.9671 45.2188 21.5537ZM46.4736 21.168V21.5537C46.4736 21.8109 46.4932 22.0339 46.5322 22.2227C46.5713 22.4082 46.6283 22.5628 46.7031 22.6865C46.7812 22.8102 46.8724 22.903 46.9766 22.9648C47.084 23.0234 47.2044 23.0527 47.3379 23.0527C47.4811 23.0527 47.6064 23.0234 47.7139 22.9648C47.8213 22.903 47.9108 22.8102 47.9824 22.6865C48.054 22.5628 48.1077 22.4082 48.1436 22.2227C48.1794 22.0339 48.1973 21.8109 48.1973 21.5537V21.168C48.1973 20.9173 48.1761 20.6976 48.1338 20.5088C48.0947 20.32 48.0378 20.1637 47.9629 20.04C47.888 19.9163 47.7969 19.8236 47.6895 19.7617C47.582 19.6966 47.4616 19.6641 47.3281 19.6641C47.1979 19.6641 47.0807 19.6966 46.9766 19.7617C46.8724 19.8236 46.7812 19.9163 46.7031 20.04C46.6283 20.1637 46.5713 20.32 46.5322 20.5088C46.4932 20.6976 46.4736 20.9173 46.4736 21.168ZM53.4072 20.875V21.915H51.2637V20.875H53.4072ZM51.6445 18.7168V24H50.3896V18.7168H51.6445ZM54.2861 18.7168V24H53.0312V18.7168H54.2861ZM57.7822 22.8574V20.3184C57.7822 20.1458 57.7594 20.0091 57.7139 19.9082C57.6715 19.8073 57.6081 19.734 57.5234 19.6885C57.4388 19.6396 57.3346 19.6152 57.2109 19.6152C57.0775 19.6152 56.9652 19.6429 56.874 19.6982C56.7829 19.7503 56.7145 19.8268 56.6689 19.9277C56.6266 20.0254 56.6055 20.141 56.6055 20.2744H55.3506C55.3506 20.0531 55.3945 19.8431 55.4824 19.6445C55.5703 19.446 55.6973 19.2702 55.8633 19.1172C56.0293 18.9609 56.2295 18.8389 56.4639 18.751C56.6982 18.6631 56.9603 18.6191 57.25 18.6191C57.5951 18.6191 57.901 18.6777 58.168 18.7949C58.4382 18.9089 58.6497 19.0928 58.8027 19.3467C58.959 19.5973 59.0371 19.9261 59.0371 20.333V22.7451C59.0371 23.0153 59.0518 23.2448 59.0811 23.4336C59.1136 23.6224 59.1608 23.7835 59.2227 23.917V24H57.9531C57.8978 23.8633 57.8555 23.6908 57.8262 23.4824C57.7969 23.2708 57.7822 23.0625 57.7822 22.8574ZM57.9434 20.7773L57.9482 21.5586H57.4209C57.2744 21.5586 57.1442 21.5798 57.0303 21.6221C56.9196 21.6644 56.8252 21.7246 56.7471 21.8027C56.6689 21.8809 56.6104 21.9736 56.5713 22.0811C56.5322 22.1885 56.5127 22.3057 56.5127 22.4326C56.5127 22.5791 56.5339 22.7012 56.5762 22.7988C56.6185 22.8932 56.6803 22.9648 56.7617 23.0137C56.8431 23.0592 56.9424 23.082 57.0596 23.082C57.2256 23.082 57.3688 23.0462 57.4893 22.9746C57.613 22.903 57.7057 22.8184 57.7676 22.7207C57.8327 22.6198 57.8571 22.5254 57.8408 22.4375L58.124 22.9453C58.0915 23.0658 58.041 23.1927 57.9727 23.3262C57.9043 23.4596 57.8164 23.585 57.709 23.7021C57.6048 23.8193 57.4762 23.9154 57.3232 23.9902C57.1735 24.0618 56.9961 24.0977 56.791 24.0977C56.5013 24.0977 56.2393 24.0342 56.0049 23.9072C55.7738 23.7803 55.5915 23.6012 55.458 23.3701C55.3245 23.1357 55.2578 22.8558 55.2578 22.5303C55.2578 22.2633 55.3018 22.0225 55.3896 21.8076C55.4775 21.5928 55.6061 21.4089 55.7754 21.2559C55.9479 21.1029 56.166 20.9857 56.4297 20.9043C56.6934 20.8197 57.0026 20.7773 57.3574 20.7773H57.9434ZM62.3623 18.7168V24H61.1074V18.7168H62.3623ZM63.7441 18.7168V19.752H59.7402V18.7168H63.7441ZM65.4336 20.3232H66.6738C67.0775 20.3232 67.4209 20.4014 67.7041 20.5576C67.9906 20.7106 68.207 20.9271 68.3535 21.207C68.5033 21.4837 68.5781 21.8027 68.5781 22.1641C68.5781 22.4277 68.5358 22.6719 68.4512 22.8965C68.3665 23.1211 68.2428 23.3164 68.0801 23.4824C67.9173 23.6452 67.7171 23.7721 67.4795 23.8633C67.2451 23.9544 66.9766 24 66.6738 24H64.6084V18.7168H65.8682V22.96H66.6738C66.8333 22.96 66.9603 22.9225 67.0547 22.8477C67.1523 22.7728 67.2223 22.6768 67.2646 22.5596C67.307 22.4391 67.3281 22.3105 67.3281 22.1738C67.3281 22.0306 67.307 21.8988 67.2646 21.7783C67.2223 21.6546 67.1523 21.5553 67.0547 21.4805C66.9603 21.4056 66.8333 21.3682 66.6738 21.3682H65.4336V20.3232ZM70.4727 18.7168V24H69.2178V18.7168H70.4727ZM78.4707 19.9668V21.0264H74.2275V19.9668H78.4707ZM83.5098 19.6641C83.3763 19.6641 83.2607 19.6999 83.1631 19.7715C83.0654 19.8431 82.9906 19.9424 82.9385 20.0693C82.8864 20.193 82.8604 20.3395 82.8604 20.5088H81.6787C81.6787 20.1475 81.7601 19.8252 81.9229 19.542C82.0856 19.2588 82.3053 19.0342 82.582 18.8682C82.8587 18.7021 83.168 18.6191 83.5098 18.6191C83.8451 18.6191 84.1413 18.6875 84.3984 18.8242C84.6556 18.9609 84.8704 19.153 85.043 19.4004C85.2188 19.6445 85.3506 19.9277 85.4385 20.25C85.5264 20.569 85.5703 20.9124 85.5703 21.2803V21.4365C85.5703 21.8044 85.5264 22.1494 85.4385 22.4717C85.3506 22.7939 85.2188 23.0771 85.043 23.3213C84.8704 23.5654 84.6556 23.7559 84.3984 23.8926C84.1445 24.0293 83.8499 24.0977 83.5146 24.0977C83.1468 24.0977 82.8262 24.0146 82.5527 23.8486C82.2793 23.6794 82.0645 23.4434 81.9082 23.1406C81.7552 22.8346 81.6787 22.4766 81.6787 22.0664H82.8604C82.8604 22.2487 82.8848 22.4147 82.9336 22.5645C82.9824 22.7109 83.0557 22.8298 83.1533 22.9209C83.251 23.0088 83.3714 23.0527 83.5146 23.0527C83.6709 23.0527 83.7995 23.0072 83.9004 22.916C84.0046 22.8249 84.0859 22.7044 84.1445 22.5547C84.2064 22.4017 84.2487 22.2292 84.2715 22.0371C84.2975 21.8418 84.3105 21.6416 84.3105 21.4365V21.2803C84.3105 21.0719 84.2975 20.8717 84.2715 20.6797C84.2487 20.4876 84.208 20.3151 84.1494 20.1621C84.0908 20.0059 84.0078 19.8838 83.9004 19.7959C83.7962 19.708 83.666 19.6641 83.5098 19.6641ZM84.7646 20.9141V21.749H83.1973V20.9141H84.7646ZM88.5146 18.7168V24H87.2598V18.7168H88.5146ZM89.8965 18.7168V19.752H85.8926V18.7168H89.8965ZM90.3555 21.5537V21.168C90.3555 20.7546 90.4059 20.39 90.5068 20.0742C90.6077 19.7552 90.751 19.4883 90.9365 19.2734C91.1221 19.0586 91.3434 18.8958 91.6006 18.7852C91.861 18.6745 92.1491 18.6191 92.4648 18.6191C92.7871 18.6191 93.0768 18.6745 93.334 18.7852C93.5944 18.8958 93.8174 19.0586 94.0029 19.2734C94.1917 19.4883 94.335 19.7552 94.4326 20.0742C94.5335 20.39 94.584 20.7546 94.584 21.168V21.5537C94.584 21.9671 94.5335 22.3317 94.4326 22.6475C94.335 22.9632 94.1917 23.2301 94.0029 23.4482C93.8174 23.6631 93.5944 23.8258 93.334 23.9365C93.0768 24.0439 92.7904 24.0977 92.4746 24.0977C92.1589 24.0977 91.8708 24.0439 91.6104 23.9365C91.3532 23.8258 91.1302 23.6631 90.9414 23.4482C90.7526 23.2301 90.6077 22.9632 90.5068 22.6475C90.4059 22.3317 90.3555 21.9671 90.3555 21.5537ZM91.6104 21.168V21.5537C91.6104 21.8109 91.6299 22.0339 91.6689 22.2227C91.708 22.4082 91.765 22.5628 91.8398 22.6865C91.918 22.8102 92.0091 22.903 92.1133 22.9648C92.2207 23.0234 92.3411 23.0527 92.4746 23.0527C92.6178 23.0527 92.7432 23.0234 92.8506 22.9648C92.958 22.903 93.0475 22.8102 93.1191 22.6865C93.1908 22.5628 93.2445 22.4082 93.2803 22.2227C93.3161 22.0339 93.334 21.8109 93.334 21.5537V21.168C93.334 20.9173 93.3128 20.6976 93.2705 20.5088C93.2314 20.32 93.1745 20.1637 93.0996 20.04C93.0247 19.9163 92.9336 19.8236 92.8262 19.7617C92.7188 19.6966 92.5983 19.6641 92.4648 19.6641C92.3346 19.6641 92.2174 19.6966 92.1133 19.7617C92.0091 19.8236 91.918 19.9163 91.8398 20.04C91.765 20.1637 91.708 20.32 91.6689 20.5088C91.6299 20.6976 91.6104 20.9173 91.6104 21.168Z" fill="#1C34FF"/>
<path d="M100.775 18.7168V19.7666H98.7783V18.7168H100.775ZM99.0859 18.7168V24H97.8311V18.7168H99.0859ZM101.737 18.7168V24H100.478V18.7168H101.737ZM104.086 19.7324V26.0312H102.836V18.7168H103.988L104.086 19.7324ZM106.879 21.1631V21.5488C106.879 21.9622 106.841 22.3268 106.767 22.6426C106.695 22.9583 106.588 23.2253 106.444 23.4434C106.301 23.6615 106.124 23.8258 105.912 23.9365C105.701 24.0439 105.453 24.0977 105.17 24.0977C104.903 24.0977 104.674 24.0374 104.481 23.917C104.289 23.7965 104.127 23.6273 103.993 23.4092C103.86 23.1911 103.754 22.9355 103.676 22.6426C103.598 22.3496 103.539 22.0322 103.5 21.6904V21.0947C103.536 20.7301 103.591 20.3965 103.666 20.0938C103.744 19.791 103.85 19.529 103.983 19.3076C104.117 19.0863 104.28 18.917 104.472 18.7998C104.667 18.6794 104.896 18.6191 105.16 18.6191C105.447 18.6191 105.697 18.6712 105.912 18.7754C106.127 18.8763 106.306 19.0309 106.449 19.2393C106.592 19.4476 106.7 19.7129 106.771 20.0352C106.843 20.3542 106.879 20.7301 106.879 21.1631ZM105.624 21.5488V21.1631C105.624 20.9027 105.608 20.6781 105.575 20.4893C105.546 20.3005 105.497 20.1458 105.429 20.0254C105.364 19.9049 105.277 19.8171 105.17 19.7617C105.066 19.7031 104.939 19.6738 104.789 19.6738C104.646 19.6738 104.521 19.7031 104.413 19.7617C104.306 19.8171 104.218 19.8968 104.149 20.001C104.081 20.1051 104.026 20.2305 103.983 20.377C103.944 20.5202 103.922 20.6797 103.915 20.8555V21.9346C103.931 22.1429 103.969 22.3317 104.027 22.501C104.089 22.6702 104.182 22.8053 104.306 22.9062C104.429 23.0039 104.594 23.0527 104.799 23.0527C104.952 23.0527 105.08 23.0218 105.185 22.96C105.289 22.8981 105.373 22.8053 105.438 22.6816C105.507 22.5579 105.554 22.4017 105.58 22.2129C105.609 22.0241 105.624 21.8027 105.624 21.5488ZM107.621 21.5537V21.168C107.621 20.7546 107.672 20.39 107.772 20.0742C107.873 19.7552 108.017 19.4883 108.202 19.2734C108.388 19.0586 108.609 18.8958 108.866 18.7852C109.127 18.6745 109.415 18.6191 109.73 18.6191C110.053 18.6191 110.342 18.6745 110.6 18.7852C110.86 18.8958 111.083 19.0586 111.269 19.2734C111.457 19.4883 111.601 19.7552 111.698 20.0742C111.799 20.39 111.85 20.7546 111.85 21.168V21.5537C111.85 21.9671 111.799 22.3317 111.698 22.6475C111.601 22.9632 111.457 23.2301 111.269 23.4482C111.083 23.6631 110.86 23.8258 110.6 23.9365C110.342 24.0439 110.056 24.0977 109.74 24.0977C109.424 24.0977 109.136 24.0439 108.876 23.9365C108.619 23.8258 108.396 23.6631 108.207 23.4482C108.018 23.2301 107.873 22.9632 107.772 22.6475C107.672 22.3317 107.621 21.9671 107.621 21.5537ZM108.876 21.168V21.5537C108.876 21.8109 108.896 22.0339 108.935 22.2227C108.974 22.4082 109.031 22.5628 109.105 22.6865C109.184 22.8102 109.275 22.903 109.379 22.9648C109.486 23.0234 109.607 23.0527 109.74 23.0527C109.883 23.0527 110.009 23.0234 110.116 22.9648C110.224 22.903 110.313 22.8102 110.385 22.6865C110.456 22.5628 110.51 22.4082 110.546 22.2227C110.582 22.0339 110.6 21.8109 110.6 21.5537V21.168C110.6 20.9173 110.578 20.6976 110.536 20.5088C110.497 20.32 110.44 20.1637 110.365 20.04C110.29 19.9163 110.199 19.8236 110.092 19.7617C109.984 19.6966 109.864 19.6641 109.73 19.6641C109.6 19.6641 109.483 19.6966 109.379 19.7617C109.275 19.8236 109.184 19.9163 109.105 20.04C109.031 20.1637 108.974 20.32 108.935 20.5088C108.896 20.6976 108.876 20.9173 108.876 21.168ZM114.667 23.0527C114.804 23.0527 114.924 23.0251 115.028 22.9697C115.132 22.9111 115.214 22.82 115.272 22.6963C115.331 22.5726 115.362 22.4115 115.365 22.2129H116.547C116.544 22.597 116.457 22.9307 116.288 23.2139C116.122 23.4971 115.899 23.7152 115.619 23.8682C115.342 24.0212 115.032 24.0977 114.687 24.0977C114.335 24.0977 114.027 24.0423 113.764 23.9316C113.503 23.8177 113.288 23.6533 113.119 23.4385C112.95 23.2204 112.823 22.9551 112.738 22.6426C112.654 22.3301 112.611 21.9736 112.611 21.5732V21.1436C112.611 20.7432 112.654 20.3867 112.738 20.0742C112.823 19.7617 112.95 19.498 113.119 19.2832C113.288 19.0651 113.503 18.9007 113.764 18.79C114.024 18.6761 114.33 18.6191 114.682 18.6191C115.056 18.6191 115.382 18.6973 115.658 18.8535C115.935 19.0098 116.151 19.2393 116.308 19.542C116.464 19.8415 116.544 20.2109 116.547 20.6504H115.365C115.362 20.4355 115.334 20.2565 115.282 20.1133C115.23 19.9668 115.152 19.8561 115.048 19.7812C114.947 19.7031 114.818 19.6641 114.662 19.6641C114.493 19.6641 114.354 19.6982 114.247 19.7666C114.143 19.8317 114.063 19.9277 114.008 20.0547C113.952 20.1816 113.913 20.3363 113.891 20.5186C113.871 20.7008 113.861 20.9092 113.861 21.1436V21.5732C113.861 21.8141 113.871 22.0273 113.891 22.2129C113.91 22.3952 113.948 22.5498 114.003 22.6768C114.058 22.8005 114.138 22.8949 114.242 22.96C114.35 23.0218 114.491 23.0527 114.667 23.0527ZM119.696 18.7168V24H118.441V18.7168H119.696ZM121.078 18.7168V19.752H117.074V18.7168H121.078ZM121.537 21.5537V21.168C121.537 20.7546 121.588 20.39 121.688 20.0742C121.789 19.7552 121.933 19.4883 122.118 19.2734C122.304 19.0586 122.525 18.8958 122.782 18.7852C123.043 18.6745 123.331 18.6191 123.646 18.6191C123.969 18.6191 124.258 18.6745 124.516 18.7852C124.776 18.8958 124.999 19.0586 125.185 19.2734C125.373 19.4883 125.517 19.7552 125.614 20.0742C125.715 20.39 125.766 20.7546 125.766 21.168V21.5537C125.766 21.9671 125.715 22.3317 125.614 22.6475C125.517 22.9632 125.373 23.2301 125.185 23.4482C124.999 23.6631 124.776 23.8258 124.516 23.9365C124.258 24.0439 123.972 24.0977 123.656 24.0977C123.34 24.0977 123.052 24.0439 122.792 23.9365C122.535 23.8258 122.312 23.6631 122.123 23.4482C121.934 23.2301 121.789 22.9632 121.688 22.6475C121.588 22.3317 121.537 21.9671 121.537 21.5537ZM122.792 21.168V21.5537C122.792 21.8109 122.812 22.0339 122.851 22.2227C122.89 22.4082 122.947 22.5628 123.021 22.6865C123.1 22.8102 123.191 22.903 123.295 22.9648C123.402 23.0234 123.523 23.0527 123.656 23.0527C123.799 23.0527 123.925 23.0234 124.032 22.9648C124.14 22.903 124.229 22.8102 124.301 22.6865C124.372 22.5628 124.426 22.4082 124.462 22.2227C124.498 22.0339 124.516 21.8109 124.516 21.5537V21.168C124.516 20.9173 124.494 20.6976 124.452 20.5088C124.413 20.32 124.356 20.1637 124.281 20.04C124.206 19.9163 124.115 19.8236 124.008 19.7617C123.9 19.6966 123.78 19.6641 123.646 19.6641C123.516 19.6641 123.399 19.6966 123.295 19.7617C123.191 19.8236 123.1 19.9163 123.021 20.04C122.947 20.1637 122.89 20.32 122.851 20.5088C122.812 20.6976 122.792 20.9173 122.792 21.168ZM128.129 16.8906L127.992 21.8564H126.942L126.801 16.8906H128.129ZM126.781 23.3799C126.781 23.1846 126.843 23.0202 126.967 22.8867C127.09 22.7533 127.257 22.6865 127.465 22.6865C127.683 22.6865 127.852 22.7533 127.973 22.8867C128.096 23.0202 128.158 23.1846 128.158 23.3799C128.158 23.5752 128.096 23.7412 127.973 23.8779C127.852 24.0114 127.683 24.0781 127.465 24.0781C127.257 24.0781 127.09 24.0114 126.967 23.8779C126.843 23.7412 126.781 23.5752 126.781 23.3799Z" fill="#F03D00"/>
</g>
<defs>
<linearGradient id="paint0_linear_348_35" x1="14.2812" y1="-45.2573" x2="22.4037" y2="-47.8118" gradientUnits="userSpaceOnUse">
<stop offset="1" stop-color="#83E5FA"/>
</linearGradient>
<linearGradient id="paint1_linear_348_35" x1="-37.0619" y1="-10.3851" x2="-48.6113" y2="-20.1031" gradientUnits="userSpaceOnUse">
<stop offset="1" stop-color="#83E5FA"/>
</linearGradient>
<linearGradient id="paint2_linear_348_35" x1="14.0845" y1="-45.8832" x2="21.4714" y2="-48.2064" gradientUnits="userSpaceOnUse">
<stop offset="1" stop-color="#83E5FA"/>
</linearGradient>
<linearGradient id="paint3_linear_348_35" x1="-37.9792" y1="-9.97004" x2="-49.0793" y2="-18.9856" gradientUnits="userSpaceOnUse">
<stop offset="1" stop-color="#83E5FA"/>
</linearGradient>
<linearGradient id="paint4_linear_348_35" x1="14.4118" y1="-46.0121" x2="21.0955" y2="-47.99" gradientUnits="userSpaceOnUse">
<stop offset="1" stop-color="#83E5FA"/>
</linearGradient>
<linearGradient id="paint5_linear_348_35" x1="-39.214" y1="-11.3703" x2="-49.2632" y2="-20.441" gradientUnits="userSpaceOnUse">
<stop offset="1" stop-color="#83E5FA"/>
</linearGradient>
<linearGradient id="paint6_linear_348_35" x1="-21.7268" y1="-42.075" x2="-8.001" y2="-62.5335" gradientUnits="userSpaceOnUse">
<stop offset="1" stop-color="#83E5FA"/>
</linearGradient>
<linearGradient id="paint7_linear_348_35" x1="3.72611" y1="7.9516" x2="-1.66719" y2="30.5638" gradientUnits="userSpaceOnUse">
<stop stop-color="#3E627A"/>
<stop offset="1" stop-color="#1D1E22"/>
</linearGradient>
<linearGradient id="paint8_linear_348_35" x1="-45.2998" y1="-17.1319" x2="-51.5164" y2="-20.3314" gradientUnits="userSpaceOnUse">
<stop offset="1" stop-color="#83E5FA"/>
</linearGradient>
<linearGradient id="paint9_linear_348_35" x1="-16.1473" y1="18.4878" x2="-19.1224" y2="23.4758" gradientUnits="userSpaceOnUse">
<stop stop-color="#3E627A"/>
<stop offset="1" stop-color="#1D1E22"/>
</linearGradient>
<linearGradient id="paint10_linear_348_35" x1="-24.2788" y1="-43.8135" x2="-19.6902" y2="-52.1669" gradientUnits="userSpaceOnUse">
<stop offset="1" stop-color="#E8FDFC"/>
</linearGradient>
<clipPath id="clip0_348_35">
<rect width="161" height="30" fill="white"/>
</clipPath>
<clipPath id="clip1_348_35">
<rect width="30" height="30" fill="white"/>
</clipPath>
</defs>
</svg>
