<svg width="20" height="20" viewBox="0 0 20 20" fill="none" xmlns="http://www.w3.org/2000/svg">
<g clip-path="url(#clip0_112_3494)">
<path d="M20 17.7778C20 18.3671 19.7659 18.9324 19.3491 19.3491C18.9324 19.7659 18.3671 20 17.7778 20H2.22222C1.63285 20 1.06762 19.7659 0.650874 19.3491C0.234126 18.9324 0 18.3671 0 17.7778V2.22222C0 1.63285 0.234126 1.06762 0.650874 0.650874C1.06762 0.234126 1.63285 0 2.22222 0L17.7778 0C18.3671 0 18.9324 0.234126 19.3491 0.650874C19.7659 1.06762 20 1.63285 20 2.22222V17.7778Z" fill="#E7E7E7"/>
<g clip-path="url(#clip1_112_3494)">
<path d="M8.12895 10.9391C8.07972 10.9391 8.03098 10.9488 7.9855 10.9677C7.94002 10.9866 7.89869 11.0142 7.86389 11.0491C7.82908 11.0839 7.80147 11.1253 7.78264 11.1709C7.76381 11.2164 7.75412 11.2652 7.75414 11.3145V11.9835C7.27102 11.4364 7.0044 10.7311 7.00451 10.0007C7.00444 9.89031 7.01104 9.78002 7.02427 9.67042C7.03034 9.62141 7.02669 9.57169 7.01354 9.52409C7.00038 9.4765 6.97798 9.43197 6.94761 9.39306C6.91724 9.35416 6.8795 9.32163 6.83656 9.29736C6.79362 9.27309 6.74631 9.25754 6.69736 9.2516C6.64841 9.24567 6.59877 9.24947 6.55128 9.26279C6.5038 9.27611 6.45941 9.29868 6.42065 9.3292C6.38189 9.35973 6.34953 9.39762 6.32541 9.4407C6.3013 9.48378 6.28592 9.5312 6.28014 9.58025C6.26316 9.71975 6.25473 9.86017 6.25488 10.0007C6.25539 10.8964 6.57683 11.7622 7.16076 12.4406H6.6297C6.53029 12.4406 6.43496 12.4802 6.36466 12.5506C6.29437 12.621 6.25488 12.7165 6.25488 12.816C6.25488 12.9156 6.29437 13.0111 6.36466 13.0815C6.43496 13.1518 6.53029 13.1914 6.6297 13.1914H8.12895C8.18757 13.1907 8.24516 13.1759 8.29694 13.1484C8.34871 13.1208 8.39317 13.0813 8.4266 13.0331C8.43097 13.0273 8.43655 13.023 8.44062 13.0169C8.44312 13.0132 8.44318 13.0088 8.44551 13.005C8.46338 12.9747 8.47676 12.9421 8.48524 12.908C8.49079 12.8889 8.49473 12.8693 8.49703 12.8495C8.4981 12.8379 8.50377 12.8279 8.50377 12.816V11.3145C8.50379 11.2652 8.4941 11.2164 8.47527 11.1709C8.45644 11.1253 8.42883 11.0839 8.39402 11.0491C8.35921 11.0142 8.31789 10.9866 8.2724 10.9677C8.22692 10.9488 8.17817 10.9391 8.12895 10.9391ZM8.69117 7.74845H8.02307C8.56948 7.26464 9.27367 6.99762 10.003 6.9977C10.1132 6.99744 10.2233 7.00405 10.3326 7.0175C10.3815 7.02345 10.4311 7.01969 10.4785 7.00645C10.5259 6.9932 10.5703 6.97073 10.6091 6.94032C10.6478 6.90991 10.6802 6.87214 10.7044 6.82919C10.7286 6.78623 10.7441 6.73892 10.7501 6.68996C10.756 6.64101 10.7523 6.59136 10.739 6.54385C10.7258 6.49634 10.7034 6.45191 10.673 6.41309C10.6426 6.37426 10.6049 6.34181 10.562 6.31759C10.5191 6.29336 10.4719 6.27783 10.423 6.27188C10.2837 6.25504 10.1434 6.24672 10.003 6.24695C9.10866 6.24744 8.24417 6.56934 7.56673 7.15412V6.62233C7.56673 6.52277 7.52724 6.42729 7.45695 6.3569C7.38666 6.2865 7.29132 6.24695 7.19192 6.24695C7.09251 6.24695 6.99717 6.2865 6.92688 6.3569C6.85659 6.42729 6.8171 6.52277 6.8171 6.62233V8.12383C6.81946 8.14864 6.8244 8.17314 6.83184 8.19692L6.83193 8.19738C6.84103 8.24357 6.859 8.28755 6.88484 8.32688L6.88912 8.33323C6.91389 8.3693 6.94493 8.40062 6.98076 8.4257C6.98486 8.4287 6.98689 8.4333 6.99115 8.43617C6.9965 8.43972 7.00256 8.44084 7.00803 8.44409C7.02929 8.4569 7.05181 8.46747 7.07524 8.47562C7.10691 8.48666 7.13993 8.49333 7.17339 8.49546C7.17988 8.49581 7.18535 8.49922 7.19192 8.49922H8.69117C8.79057 8.49922 8.88591 8.45967 8.9562 8.38927C9.02649 8.31888 9.06598 8.2234 9.06598 8.12384C9.06598 8.02429 9.02649 7.92881 8.9562 7.85841C8.88591 7.78801 8.79057 7.74845 8.69117 7.74845ZM13.1741 11.804C13.165 11.7578 13.147 11.7138 13.1212 11.6745L13.1169 11.6682C13.0921 11.6321 13.0611 11.6008 13.0252 11.5757C13.0211 11.5727 13.0191 11.5681 13.0149 11.5652C13.0108 11.5626 13.006 11.5625 13.0019 11.5599C12.9544 11.5335 12.9023 11.5162 12.8483 11.5091C12.8365 11.508 12.8263 11.5022 12.8141 11.5022H11.3149C11.2154 11.5022 11.1201 11.5417 11.0498 11.6121C10.9795 11.6825 10.94 11.778 10.94 11.8776C10.94 11.9771 10.9795 12.0726 11.0498 12.143C11.1201 12.2134 11.2154 12.2529 11.3149 12.2529H11.9829C11.4365 12.7368 10.7323 13.0038 10.003 13.0037C9.89283 13.0038 9.78275 12.9971 9.6734 12.9835C9.57467 12.9715 9.47523 12.9993 9.39694 13.0607C9.31865 13.1221 9.26793 13.2122 9.25595 13.3111C9.24396 13.4099 9.27168 13.5095 9.33301 13.5879C9.39434 13.6663 9.48426 13.7171 9.58299 13.7291C9.72237 13.746 9.86263 13.7544 10.003 13.7544C10.8974 13.754 11.7619 13.4321 12.4393 12.8473V13.3791C12.4393 13.4786 12.4788 13.5741 12.5491 13.6445C12.6194 13.7149 12.7147 13.7545 12.8141 13.7545C12.9135 13.7545 13.0088 13.7149 13.0791 13.6445C13.1494 13.5741 13.1889 13.4786 13.1889 13.3791V11.8776C13.1866 11.8528 13.1816 11.8283 13.1742 11.8045L13.1741 11.804ZM13.3763 7.56077C13.4757 7.56077 13.5711 7.52122 13.6414 7.45082C13.7116 7.38043 13.7511 7.28495 13.7511 7.18539C13.7511 7.08584 13.7116 6.99036 13.6414 6.91996C13.5711 6.84956 13.4757 6.81002 13.3763 6.81002H11.8771C11.8527 6.81237 11.8286 6.81724 11.8052 6.82454L11.8027 6.82505C11.7572 6.83417 11.7138 6.85195 11.675 6.87742L11.6676 6.88239C11.6318 6.90716 11.6006 6.93815 11.5757 6.9739C11.5727 6.97796 11.5682 6.97995 11.5654 6.98414C11.5627 6.98817 11.5626 6.99294 11.5601 6.99704C11.5334 7.04493 11.516 7.09751 11.509 7.15194C11.5079 7.16354 11.5023 7.17353 11.5023 7.18539V8.68689C11.5023 8.78645 11.5417 8.88193 11.612 8.95232C11.6823 9.02272 11.7777 9.06227 11.8771 9.06227C11.9765 9.06227 12.0718 9.02272 12.1421 8.95232C12.2124 8.88193 12.2519 8.78645 12.2519 8.68689V8.01764C12.735 8.56493 13.0016 9.27022 13.0015 10.0007C13.0016 10.1111 12.995 10.2214 12.9817 10.331C12.9699 10.4298 12.9976 10.5293 13.0589 10.6076C13.1202 10.686 13.21 10.7368 13.3086 10.7489C13.3238 10.7506 13.3391 10.7515 13.3544 10.7514C13.4459 10.7513 13.5342 10.7177 13.6026 10.6568C13.6711 10.596 13.7149 10.5121 13.7259 10.4212C13.7429 10.2817 13.7513 10.1412 13.7511 10.0007C13.7506 9.10499 13.4292 8.23921 12.8452 7.56077H13.3763Z" fill="#383838"/>
</g>
</g>
<defs>
<clipPath id="clip0_112_3494">
<rect width="20" height="20" rx="10" fill="white"/>
</clipPath>
<clipPath id="clip1_112_3494">
<rect width="7.5" height="7.5" fill="white" transform="translate(6.25 6.25)"/>
</clipPath>
</defs>
</svg>
