<svg width="26" height="24" viewBox="0 0 26 24" fill="none" xmlns="http://www.w3.org/2000/svg">
<path d="M21.5184 7.69498C21.3951 6.76002 20.9013 5.7591 20.0713 4.92887C19.2413 4.09885 18.2406 3.60538 17.3059 3.48205C16.8828 3.42627 16.318 3.19246 15.9795 2.93276C15.231 2.35868 14.1743 2 13.0002 2C11.8261 2 10.7694 2.35868 10.0211 2.93276C9.68256 3.19246 9.11775 3.42627 8.69467 3.48205C7.75971 3.60538 6.75923 4.09885 5.92921 4.92887C5.09919 5.7591 4.60546 6.76005 4.48217 7.69498C4.42661 8.11806 4.19259 8.6824 3.9331 9.02094C3.35881 9.76927 3.00012 10.826 3.00012 12C3.00012 13.1741 3.35881 14.2308 3.93288 14.9792C4.19259 15.3177 4.42639 15.8822 4.48196 16.3051C4.60528 17.24 5.09897 18.241 5.92899 19.0712C6.75901 19.9012 7.75971 20.3947 8.69445 20.518C9.11753 20.5738 9.68234 20.8076 10.0208 21.0673C10.7692 21.6414 11.8259 22 13 22C14.174 22 15.2308 21.6414 15.9791 21.0673C16.3176 20.8076 16.8824 20.5738 17.3055 20.518C18.2405 20.3947 19.2409 19.9012 20.0709 19.0712C20.9009 18.241 21.3947 17.24 21.518 16.3051C21.5736 15.882 21.8076 15.3177 22.067 14.9792C22.6411 14.2308 22.9998 13.1741 22.9998 12C22.9998 10.826 22.6411 9.76923 22.067 9.02094C21.8078 8.6824 21.574 8.11806 21.5184 7.69498ZM14.1973 17.6711C14.1973 17.9157 13.9989 18.1138 13.7545 18.1138H12.32C12.0756 18.1138 11.8772 17.9157 11.8772 17.6711V16.2367C11.8772 15.992 12.0756 15.7939 12.32 15.7939H13.7545C13.9989 15.7939 14.1973 15.992 14.1973 16.2367V17.6711ZM16.9096 10.8151C16.6204 11.2721 16.0028 11.894 15.0561 12.6811C14.5661 13.0884 14.262 13.4159 14.1437 13.6636C14.0551 13.8494 14.0024 14.1449 13.9865 14.5503C13.977 14.7947 13.7844 14.9928 13.5397 14.9928H12.3198C12.0754 14.9928 11.8748 14.8688 11.8724 14.7161C11.8702 14.5744 11.8688 14.4823 11.8688 14.4396C11.8688 13.757 11.9818 13.1956 12.2073 12.7552C12.4332 12.3149 12.8843 11.8196 13.5613 11.269C14.2384 10.7186 14.6428 10.3579 14.7749 10.1875C14.9786 9.91781 15.0804 9.62048 15.0804 9.29569C15.0804 8.84425 14.9004 8.45772 14.5397 8.13557C14.1791 7.81346 13.6935 7.65248 13.0825 7.65248C12.6627 7.65248 12.2924 7.73771 11.9704 7.90817C11.7544 8.02263 11.4493 8.28277 11.302 8.47805C11.1378 8.6959 11.0047 8.95803 10.9029 9.26444C10.8256 9.49647 10.5905 9.66736 10.3476 9.63726L9.09651 9.48207C8.85363 9.45194 8.66613 9.22902 8.7095 8.98834C8.85341 8.19132 9.25569 7.50101 9.91611 6.91764C10.695 6.22954 11.7174 5.8855 12.9833 5.8855C14.3155 5.8855 15.3748 6.23373 16.1619 6.93004C16.949 7.62636 17.3427 8.43688 17.3427 9.36164C17.3431 9.87396 17.1985 10.3584 16.9096 10.8151Z" fill="#383838"/>
</svg>
