<svg width="30" height="30" viewBox="0 0 30 30" fill="none" xmlns="http://www.w3.org/2000/svg">
<g clip-path="url(#clip0_348_97)">
<path d="M34.4483 0H4.30604C3.164 0 2.06875 0.45367 1.26121 1.26121C0.45367 2.06875 0 3.164 0 4.30604L0 8.61207H38.7543V4.30604C38.7543 3.164 38.3007 2.06875 37.4931 1.26121C36.6856 0.45367 35.5903 0 34.4483 0Z" fill="#EEEEEE"/>
<path d="M0 8.61206H38.7543V19.3772H0V8.61206Z" fill="#22408C"/>
<path d="M39 24.8772C39 26.3359 38.5435 27.7348 37.7308 28.7663C36.9181 29.7977 35.8159 30.3772 34.6667 30.3772H4.33333C3.18406 30.3772 2.08186 29.7977 1.2692 28.7663C0.456546 27.7348 0 26.3359 0 24.8772V19.3772H39V24.8772Z" fill="#CE2028"/>
</g>
<defs>
<clipPath id="clip0_348_97">
<rect width="30" height="30" rx="15" fill="white"/>
</clipPath>
</defs>
</svg>
