<svg width="16" height="16" viewBox="0 0 16 16" fill="none" xmlns="http://www.w3.org/2000/svg">
<path d="M10.158 13.4436C12.3435 13.6647 13.5063 12.5889 14.0947 9.92907L14.7812 6.8492C15.4676 3.76933 14.571 2.24414 11.636 1.52206L10.4662 1.23471C8.12666 0.652626 6.73271 1.13155 5.91315 2.91463M10.158 13.4436C9.8078 13.4142 9.42954 13.3479 9.02327 13.2447L7.84647 12.95C4.92548 12.2205 4.02186 10.7027 4.70833 7.62285L5.3948 4.53562C5.53489 3.90933 5.70301 3.36409 5.91315 2.91463M10.158 13.4436C9.72374 13.7531 9.17737 14.011 8.51192 14.2394L7.40517 14.6225C4.62427 15.5657 3.16028 14.7773 2.25666 11.8521L1.36005 8.94174C0.463444 6.0166 1.20595 4.4693 3.98684 3.52618L5.09359 3.14304C5.38079 3.04726 5.65397 2.96621 5.91315 2.91463M8.46288 5.44189L11.8602 6.34817M7.77642 8.29335L9.8078 8.83859" stroke="#F03D00" stroke-width="1.2" stroke-linecap="round" stroke-linejoin="round"/>
</svg>
