<svg width="16" height="16" viewBox="0 0 16 16" fill="none" xmlns="http://www.w3.org/2000/svg">
<g clip-path="url(#clip0_112_3503)">
<path d="M16 14.2222C16 14.6937 15.8127 15.1459 15.4793 15.4793C15.1459 15.8127 14.6937 16 14.2222 16H1.77778C1.30628 16 0.854097 15.8127 0.520699 15.4793C0.187301 15.1459 0 14.6937 0 14.2222V1.77778C0 1.30628 0.187301 0.854097 0.520699 0.520699C0.854097 0.187301 1.30628 0 1.77778 0L14.2222 0C14.6937 0 15.1459 0.187301 15.4793 0.520699C15.8127 0.854097 16 1.30628 16 1.77778V14.2222Z" fill="white"/>
<g clip-path="url(#clip1_112_3503)">
<path d="M6.50316 8.75132C6.46378 8.75131 6.42478 8.75907 6.3884 8.77415C6.35201 8.78924 6.31895 8.81136 6.29111 8.83925C6.26326 8.86714 6.24118 8.90025 6.22611 8.93668C6.21105 8.97312 6.2033 9.01218 6.20331 9.05162V9.58684C5.81682 9.14909 5.60352 8.5849 5.60361 8.00057C5.60355 7.91225 5.60883 7.82401 5.61942 7.73634C5.62427 7.69713 5.62135 7.65735 5.61083 7.61927C5.60031 7.5812 5.58238 7.54558 5.55809 7.51445C5.53379 7.48333 5.5036 7.45731 5.46925 7.43789C5.43489 7.41847 5.39705 7.40603 5.35789 7.40128C5.31873 7.39654 5.27901 7.39958 5.24103 7.41023C5.20304 7.42088 5.16752 7.43894 5.13652 7.46336C5.10551 7.48779 5.07962 7.5181 5.06033 7.55256C5.04104 7.58702 5.02873 7.62496 5.02411 7.6642C5.01053 7.7758 5.00378 7.88813 5.00391 8.00057C5.00432 8.71713 5.26147 9.40976 5.72861 9.95252H5.30376C5.22423 9.95252 5.14796 9.98416 5.09173 10.0405C5.0355 10.0968 5.00391 10.1732 5.00391 10.2528C5.00391 10.3325 5.0355 10.4088 5.09173 10.4652C5.14796 10.5215 5.22423 10.5531 5.30376 10.5531H6.50316C6.55005 10.5525 6.59613 10.5407 6.63755 10.5187C6.67897 10.4967 6.71453 10.465 6.74128 10.4264C6.74477 10.4218 6.74924 10.4184 6.7525 10.4135C6.75449 10.4105 6.75455 10.407 6.75641 10.404C6.7707 10.3798 6.78141 10.3537 6.7882 10.3264C6.79263 10.3111 6.79579 10.2954 6.79762 10.2796C6.79848 10.2703 6.80302 10.2623 6.80302 10.2528V9.05163C6.80303 9.01219 6.79528 8.97313 6.78022 8.93669C6.76515 8.90025 6.74306 8.86714 6.71522 8.83925C6.68737 8.81136 6.65431 8.78924 6.61792 8.77415C6.58154 8.75906 6.54254 8.7513 6.50316 8.75132ZM6.95293 6.19876H6.41846C6.85558 5.81171 7.41894 5.5981 8.00241 5.59816C8.09055 5.59795 8.17861 5.60324 8.26609 5.614C8.3052 5.61876 8.34486 5.61575 8.38281 5.60516C8.42076 5.59456 8.45625 5.57659 8.48726 5.55226C8.51827 5.52792 8.5442 5.49771 8.56355 5.46335C8.5829 5.42898 8.59531 5.39114 8.60006 5.35197C8.60481 5.3128 8.60181 5.27308 8.59123 5.23508C8.58065 5.19707 8.5627 5.16153 8.53841 5.13047C8.51411 5.09941 8.48394 5.07345 8.44963 5.05407C8.41532 5.03469 8.37753 5.02226 8.33842 5.01751C8.22692 5.00403 8.11471 4.99737 8.00241 4.99756C7.28692 4.99795 6.59534 5.25547 6.05338 5.7233V5.29786C6.05338 5.21822 6.02179 5.14184 5.96556 5.08552C5.90933 5.0292 5.83306 4.99756 5.75353 4.99756C5.67401 4.99756 5.59774 5.0292 5.54151 5.08552C5.48527 5.14184 5.45368 5.21822 5.45368 5.29786V6.49906C5.45557 6.51891 5.45952 6.53851 5.46547 6.55754L5.46554 6.5579C5.47282 6.59485 5.4872 6.63004 5.50787 6.66151L5.5113 6.66658C5.53111 6.69544 5.55594 6.7205 5.58461 6.74056C5.58789 6.74296 5.58952 6.74664 5.59292 6.74893C5.5972 6.75177 5.60205 6.75267 5.60643 6.75527C5.62343 6.76552 5.64145 6.77397 5.6602 6.7805C5.68553 6.78933 5.71194 6.79466 5.73871 6.79637C5.7439 6.79665 5.74828 6.79937 5.75353 6.79937H6.95293C7.03246 6.79937 7.10873 6.76773 7.16496 6.71142C7.22119 6.6551 7.25278 6.57872 7.25278 6.49907C7.25278 6.41943 7.22119 6.34305 7.16496 6.28673C7.10873 6.23041 7.03246 6.19876 6.95293 6.19876ZM10.5393 9.44323C10.532 9.40627 10.5176 9.37107 10.4969 9.3396L10.4935 9.33456C10.4737 9.30569 10.4489 9.28062 10.4202 9.26055C10.4169 9.25817 10.4153 9.25447 10.4119 9.25219C10.4087 9.25005 10.4048 9.24998 10.4015 9.24796C10.3635 9.22678 10.3218 9.21299 10.2787 9.20729C10.2692 9.20639 10.261 9.20175 10.2513 9.20175H9.05188C8.97236 9.20175 8.89609 9.23339 8.83986 9.28971C8.78362 9.34602 8.75203 9.42241 8.75203 9.50205C8.75203 9.5817 8.78362 9.65808 8.83986 9.7144C8.89609 9.77071 8.97236 9.80235 9.05188 9.80235H9.58634C9.14923 10.1894 8.58587 10.403 8.00241 10.403C7.91426 10.4031 7.8262 10.3977 7.73872 10.3868C7.65974 10.3772 7.58018 10.3994 7.51755 10.4486C7.45492 10.4977 7.41435 10.5698 7.40476 10.6489C7.39517 10.728 7.41734 10.8076 7.46641 10.8704C7.51548 10.9331 7.58741 10.9737 7.66639 10.9833C7.77789 10.9968 7.8901 11.0035 8.00241 11.0036C8.71789 11.0032 9.40948 10.7456 9.95143 10.2778V10.7033C9.95143 10.7829 9.98303 10.8593 10.0393 10.9156C10.0955 10.9719 10.1718 11.0036 10.2513 11.0036C10.3308 11.0036 10.4071 10.9719 10.4633 10.9156C10.5195 10.8593 10.5511 10.7829 10.5511 10.7033V9.50207C10.5492 9.48222 10.5453 9.46262 10.5393 9.4436L10.5393 9.44323ZM10.7011 6.04861C10.7806 6.04861 10.8569 6.01697 10.9131 5.96066C10.9693 5.90434 11.0009 5.82796 11.0009 5.74831C11.0009 5.66867 10.9693 5.59229 10.9131 5.53597C10.8569 5.47965 10.7806 5.44801 10.7011 5.44801H9.50166C9.48214 5.4499 9.46286 5.45379 9.44414 5.45963L9.44214 5.46004C9.40573 5.46733 9.37105 5.48156 9.33998 5.50194L9.33411 5.50591C9.30543 5.52573 9.28052 5.55052 9.26056 5.57912C9.2582 5.58236 9.25456 5.58396 9.25232 5.58731C9.25018 5.59054 9.25011 5.59435 9.24809 5.59763C9.22669 5.63595 9.21282 5.67801 9.20721 5.72155C9.20635 5.73083 9.20181 5.73882 9.20181 5.74831V6.94951C9.20181 7.02916 9.2334 7.10554 9.28963 7.16186C9.34587 7.21818 9.42213 7.24981 9.50166 7.24981C9.58118 7.24981 9.65745 7.21818 9.71368 7.16186C9.76992 7.10554 9.80151 7.02916 9.80151 6.94951V6.41412C10.188 6.85194 10.4013 7.41617 10.4012 8.00055C10.4013 8.08887 10.396 8.1771 10.3854 8.26478C10.3759 8.34383 10.3981 8.42342 10.4471 8.4861C10.4961 8.54877 10.568 8.58941 10.6469 8.5991C10.659 8.60051 10.6713 8.60119 10.6835 8.60115C10.7567 8.60106 10.8274 8.57413 10.8821 8.52545C10.9369 8.47678 10.9719 8.40972 10.9807 8.33692C10.9943 8.22532 11.001 8.11299 11.0009 8.00057C11.0005 7.28399 10.7433 6.59137 10.2762 6.04861H10.7011Z" fill="#383838"/>
</g>
</g>
<defs>
<clipPath id="clip0_112_3503">
<rect width="16" height="16" rx="8" fill="white"/>
</clipPath>
<clipPath id="clip1_112_3503">
<rect width="6" height="6" fill="white" transform="translate(5 5)"/>
</clipPath>
</defs>
</svg>
