<svg width="16" height="16" viewBox="0 0 16 16" fill="none" xmlns="http://www.w3.org/2000/svg">
<g clip-path="url(#clip0_112_6708)">
<path d="M16 14.2222C16 14.6937 15.8127 15.1459 15.4793 15.4793C15.1459 15.8127 14.6937 16 14.2222 16H1.77778C1.30628 16 0.854097 15.8127 0.520699 15.4793C0.187301 15.1459 0 14.6937 0 14.2222V1.77778C0 1.30628 0.187301 0.854097 0.520699 0.520699C0.854097 0.187301 1.30628 0 1.77778 0L14.2222 0C14.6937 0 15.1459 0.187301 15.4793 0.520699C15.8127 0.854097 16 1.30628 16 1.77778V14.2222Z" fill="white"/>
<path d="M10.7236 5.09943C10.5886 5.01032 10.4245 4.97944 10.2672 5.01355C10.1099 5.04767 9.97237 5.144 9.88472 5.28139L7.24401 9.42961L6.02409 8.28001C5.96585 8.22363 5.8972 8.1796 5.82212 8.15049C5.74705 8.12137 5.66705 8.10775 5.58676 8.11041C5.50648 8.11306 5.42751 8.13195 5.35445 8.16597C5.28139 8.19998 5.21568 8.24845 5.16115 8.30857C5.10662 8.36868 5.06435 8.43923 5.0368 8.51613C5.00924 8.59303 4.99695 8.67474 5.00064 8.75652C5.00433 8.83829 5.02392 8.91851 5.05827 8.99251C5.09263 9.06651 5.14107 9.13282 5.20078 9.18758L6.94952 10.8356C7.06596 10.9456 7.21393 11 7.36094 11C7.52419 11 7.73305 10.9303 7.87011 10.7184C7.95064 10.5933 10.9023 5.95434 10.9023 5.95434C10.9457 5.88624 10.9754 5.81011 10.9899 5.73029C11.0044 5.65047 11.0033 5.56853 10.9867 5.48914C10.9701 5.40976 10.9383 5.33448 10.8931 5.26761C10.848 5.20075 10.7904 5.1436 10.7236 5.09943Z" fill="#03CC60"/>
</g>
<defs>
<clipPath id="clip0_112_6708">
<rect width="16" height="16" rx="8" fill="white"/>
</clipPath>
</defs>
</svg>
