<svg width="16" height="16" viewBox="0 0 16 16" fill="none" xmlns="http://www.w3.org/2000/svg">
<g clip-path="url(#clip0_112_3404)">
<path d="M16 14.2222C16 14.6937 15.8127 15.1459 15.4793 15.4793C15.1459 15.8127 14.6937 16 14.2222 16H1.77778C1.30628 16 0.854097 15.8127 0.520699 15.4793C0.187301 15.1459 0 14.6937 0 14.2222V1.77778C0 1.30628 0.187301 0.854097 0.520699 0.520699C0.854097 0.187301 1.30628 0 1.77778 0L14.2222 0C14.6937 0 15.1459 0.187301 15.4793 0.520699C15.8127 0.854097 16 1.30628 16 1.77778V14.2222Z" fill="white"/>
<path d="M5.5 5C5.36719 5 5.24023 5.05273 5.14648 5.14648C4.95117 5.3418 4.95117 5.6582 5.14648 5.85352L7.29297 8L5.14648 10.1465C4.95117 10.3418 4.95117 10.6582 5.14648 10.8535C5.3418 11.0488 5.6582 11.0488 5.85352 10.8535L8 8.70703L10.1465 10.8535C10.3418 11.0488 10.6582 11.0488 10.8535 10.8535C11.0488 10.6582 11.0488 10.3418 10.8535 10.1465L8.70703 8L10.8535 5.85352C11.0488 5.6582 11.0488 5.3418 10.8535 5.14648C10.7598 5.05273 10.6328 5 10.5 5C10.3672 5 10.2402 5.05273 10.1465 5.14648L8 7.29297L5.85352 5.14648C5.75977 5.05273 5.63281 5 5.5 5Z" fill="#FF272C"/>
</g>
<defs>
<clipPath id="clip0_112_3404">
<rect width="16" height="16" rx="8" fill="white"/>
</clipPath>
</defs>
</svg>
