<svg width="81" height="80" viewBox="0 0 81 80" fill="none" xmlns="http://www.w3.org/2000/svg">
<rect x="0.5" width="80" height="80" rx="40" fill="#F3F4F7"/>
<g clip-path="url(#clip0_1_1025)">
<path d="M59.2444 44.354C61.1231 46.1883 63.106 47.9139 64.791 49.9332C65.5354 50.8305 66.2401 51.7564 66.7792 52.7978C67.5431 54.2781 66.8512 55.9071 65.5239 55.9955L57.2728 55.9917C55.1447 56.1683 53.447 55.3116 52.0196 53.8565C50.8772 52.6929 49.8193 51.4545 48.7208 50.2517C48.2705 49.7601 47.7991 49.2975 47.2361 48.9318C46.1097 48.2007 45.132 48.4245 44.4883 49.5992C43.8328 50.7941 43.684 52.1172 43.6196 53.4488C43.5312 55.3917 42.9439 55.9026 40.9923 55.9915C36.8214 56.1882 32.863 55.5572 29.1856 53.4531C25.9436 51.5982 23.4297 48.9795 21.2414 46.0151C16.9811 40.2426 13.7184 33.8995 10.7861 27.3787C10.126 25.9095 10.6087 25.1209 12.2298 25.0929C14.9215 25.0406 17.6128 25.0444 20.3078 25.0892C21.4018 25.1052 22.126 25.7326 22.5485 26.7662C24.0048 30.347 25.7867 33.7539 28.0235 36.9117C28.6191 37.7524 29.2266 38.5933 30.0914 39.185C31.0482 39.8402 31.7768 39.623 32.2269 38.5571C32.5125 37.8812 32.6376 37.1532 32.702 36.4294C32.9153 33.9391 32.9434 31.4529 32.5694 28.9712C32.3397 27.4225 31.4674 26.4198 29.9219 26.1268C29.1333 25.9773 29.2507 25.6839 29.6325 25.2337C30.2957 24.4574 30.9195 23.9741 32.163 23.9741H41.488C42.956 24.2638 43.282 24.9233 43.483 26.4004L43.4909 36.7585C43.4749 37.3303 43.7766 39.0273 44.8065 39.4058C45.6309 39.6752 46.1742 39.0157 46.6689 38.493C48.9016 36.1235 50.495 33.323 51.9186 30.4232C52.5503 29.1481 53.0936 27.824 53.62 26.5009C54.0101 25.5191 54.6221 25.0361 55.728 25.0574L64.7028 25.0654C64.9689 25.0654 65.2382 25.0693 65.4959 25.1134C67.0082 25.3711 67.4227 26.0217 66.9555 27.4985C66.2196 29.8154 64.7876 31.7462 63.3875 33.686C61.8908 35.7569 60.2901 37.757 58.8059 39.8402C57.4422 41.7428 57.5504 42.7017 59.2444 44.354Z" fill="#436EAB"/>
</g>
<defs>
<clipPath id="clip0_1_1025">
<rect width="56.6372" height="32" fill="white" transform="translate(10.5 24)"/>
</clipPath>
</defs>
</svg>
